<svg xmlns="http://www.w3.org/2000/svg" viewBox="0 0 186 227">
  <g fill="none" fill-rule="evenodd">
    <path d="M93 227c-51.362 0-93-4.254-93-9.501C0 212.253 41.638 208 93 208s93 4.253 93 9.499c0 5.247-41.638 9.501-93 9.501m0-18.248c-47.297 0-85.64 3.916-85.64 8.747 0 4.832 38.343 8.749 85.64 8.749s85.64-3.917 85.64-8.75c0-4.83-38.343-8.746-85.64-8.746" fill="#E5E5E4"/>
    <path d="M93 226c-47.496 0-86-4.03-86-9s38.504-9 86-9 86 4.03 86 9-38.504 9-86 9m0-17.346c-44.043 0-79.745 3.737-79.745 8.345 0 4.61 35.702 8.347 79.745 8.347 44.042 0 79.745-3.737 79.745-8.347 0-4.608-35.703-8.345-79.745-8.345" fill="#D9DAD9"/>
    <path d="M93.5 226c-43.907 0-79.5-3.805-79.5-8.5s35.593-8.5 79.5-8.5 79.5 3.805 79.5 8.5-35.593 8.5-79.5 8.5m0-16.273c-40.15 0-72.699 3.48-72.699 7.772 0 4.293 32.549 7.773 72.7 7.773 40.15 0 72.698-3.48 72.698-7.773 0-4.292-32.549-7.772-72.699-7.772" fill="#D0D1D0"/>
    <path d="M92.5 224c-40.04 0-72.5-3.358-72.5-7.5 0-4.142 32.46-7.5 72.5-7.5s72.5 3.358 72.5 7.5c0 4.142-32.46 7.5-72.5 7.5m0-14.451c-37.111 0-67.196 3.112-67.196 6.95 0 3.841 30.085 6.953 67.196 6.953 37.112 0 67.196-3.112 67.196-6.952s-30.084-6.951-67.196-6.951" fill="#C7C8C7"/>
    <path d="M93.5 224c-37.28 0-67.5-3.134-67.5-7s30.22-7 67.5-7 67.5 3.134 67.5 7-30.22 7-67.5 7m0-13.446c-34.329 0-62.157 2.886-62.157 6.445 0 3.56 27.828 6.447 62.157 6.447 34.329 0 62.157-2.886 62.157-6.447 0-3.559-27.828-6.445-62.157-6.445" fill="#BFC0BF"/>
    <path d="M93 224c-34.242 0-62-2.91-62-6.5s27.758-6.5 62-6.5c34.242 0 62 2.91 62 6.5s-27.758 6.5-62 6.5m0-12.474c-31.472 0-56.985 2.674-56.985 5.973 0 3.3 25.513 5.974 56.985 5.974 31.472 0 56.985-2.675 56.985-5.974 0-3.299-25.513-5.973-56.985-5.973" fill="#B8B9B8"/>
    <path d="M93 223c-31.48 0-57-2.687-57-6 0-3.314 25.52-6 57-6s57 2.686 57 6c0 3.313-25.52 6-57 6m0-11.525c-28.989 0-52.488 2.475-52.488 5.525 0 3.051 23.5 5.526 52.488 5.526 28.989 0 52.488-2.475 52.488-5.526 0-3.05-23.5-5.525-52.488-5.525" fill="#B2B3B2"/>
    <path d="M93.5 223c-28.996 0-52.5-2.463-52.5-5.5s23.504-5.5 52.5-5.5 52.5 2.463 52.5 5.5-23.504 5.5-52.5 5.5m0-10.6c-26.886 0-48.683 2.283-48.683 5.1 0 2.817 21.797 5.1 48.683 5.1s48.683-2.283 48.683-5.1c0-2.817-21.797-5.1-48.683-5.1" fill="#ACADAC"/>
    <path d="M92.5 222c-26.785 0-48.5-2.239-48.5-5s21.715-5 48.5-5 48.5 2.239 48.5 5-21.715 5-48.5 5m0-9.572c-24.494 0-44.35 2.048-44.35 4.571 0 2.525 19.856 4.573 44.35 4.573s44.35-2.048 44.35-4.573c0-2.523-19.856-4.57-44.35-4.57" fill="#A7A8A6"/>
    <path d="M93.5 221c-24.577 0-44.5-2.015-44.5-4.5s19.923-4.5 44.5-4.5 44.5 2.015 44.5 4.5-19.923 4.5-44.5 4.5m0-8.671c-22.778 0-41.244 1.868-41.244 4.17 0 2.304 18.466 4.171 41.244 4.171 22.779 0 41.244-1.867 41.244-4.17s-18.465-4.171-41.244-4.171" fill="#A2A3A2"/>
    <path d="M93.5 222c-22.92 0-41.5-2.014-41.5-4.5 0-2.485 18.58-4.5 41.5-4.5s41.5 2.015 41.5 4.5c0 2.486-18.58 4.5-41.5 4.5m0-8.643c-21.105 0-38.215 1.854-38.215 4.143 0 2.289 17.11 4.144 38.215 4.144 21.106 0 38.215-1.855 38.215-4.144s-17.109-4.143-38.215-4.143" fill="#9D9E9D"/>
    <path d="M93 221c-20.986 0-38-1.79-38-4s17.014-4 38-4c20.987 0 38 1.79 38 4s-17.013 4-38 4m0-7.71c-19.46 0-35.237 1.662-35.237 3.71S73.54 220.708 93 220.708s35.237-1.66 35.237-3.71c0-2.047-15.777-3.709-35.237-3.709" fill="#999A99"/>
    <path d="M93.5 220c-19.605 0-35.5-1.567-35.5-3.5 0-1.932 15.895-3.5 35.5-3.5s35.5 1.568 35.5 3.5c0 1.933-15.895 3.5-35.5 3.5m0-6.7c-17.928 0-32.462 1.432-32.462 3.2 0 1.768 14.534 3.2 32.462 3.2 17.928 0 32.462-1.432 32.462-3.2 0-1.768-14.534-3.2-32.462-3.2" fill="#959694"/>
    <path d="M93 221c-17.673 0-32-1.566-32-3.5s14.327-3.5 32-3.5c17.673 0 32 1.566 32 3.5s-14.327 3.5-32 3.5m0-6.77c-16.504 0-29.884 1.465-29.884 3.27s13.38 3.27 29.884 3.27c16.505 0 29.884-1.465 29.884-3.27s-13.379-3.27-29.884-3.27" fill="#919290"/>
    <path d="M93 220c-16.569 0-30-1.343-30-3s13.431-3 30-3c16.57 0 30 1.343 30 3s-13.43 3-30 3m0-5.763c-15.257 0-27.626 1.237-27.626 2.762 0 1.527 12.369 2.763 27.626 2.763 15.257 0 27.626-1.236 27.626-2.763 0-1.525-12.369-2.762-27.626-2.762" fill="#8E8E8D"/>
    <path d="M93.5 220c-15.188 0-27.5-1.342-27.5-3 0-1.656 12.312-3 27.5-3s27.5 1.344 27.5 3c0 1.658-12.312 3-27.5 3m0-5.78c-14.082 0-25.5 1.244-25.5 2.78 0 1.537 11.418 2.782 25.5 2.782 14.083 0 25.5-1.245 25.5-2.782 0-1.536-11.417-2.78-25.5-2.78" fill="#8A8B8A"/>
    <path d="M92.5 220c-14.082 0-25.5-1.12-25.5-2.5 0-1.381 11.418-2.5 25.5-2.5 14.083 0 25.5 1.119 25.5 2.5 0 1.38-11.417 2.5-25.5 2.5m0-4.787c-12.879 0-23.318 1.024-23.318 2.286 0 1.264 10.44 2.288 23.318 2.288 12.879 0 23.318-1.024 23.318-2.288 0-1.262-10.44-2.286-23.318-2.286" fill="#878887"/>
    <path d="M93.5 220c-12.98 0-23.5-1.12-23.5-2.5s10.52-2.5 23.5-2.5 23.5 1.12 23.5 2.5-10.52 2.5-23.5 2.5m0-4.707c-11.46 0-20.752.988-20.752 2.206 0 1.22 9.291 2.208 20.752 2.208 11.462 0 20.751-.989 20.751-2.208 0-1.218-9.29-2.206-20.75-2.206" fill="#858685"/>
    <path d="M93 219c-11.597 0-21-.896-21-2s9.403-2 21-2c11.599 0 21 .896 21 2s-9.401 2-21 2m0-3.823c-10.574 0-19.145.816-19.145 1.823 0 1.008 8.571 1.824 19.146 1.824 10.573 0 19.145-.816 19.145-1.824 0-1.007-8.572-1.823-19.145-1.823" fill="#838482"/>
    <path d="M94 219c-10.494 0-19-.895-19-2s8.506-2 19-2 19 .895 19 2-8.506 2-19 2m0-3.864c-9.782 0-17.712.834-17.712 1.863 0 1.03 7.93 1.865 17.712 1.865s17.712-.834 17.712-1.865c0-1.029-7.93-1.863-17.712-1.863" fill="#808180"/>
    <path d="M92.5 220c-9.665 0-17.5-.895-17.5-2s7.835-2 17.5-2 17.5.895 17.5 2-7.835 2-17.5 2m0-3.842c-8.9 0-16.115.826-16.115 1.841 0 1.017 7.215 1.842 16.115 1.842 8.9 0 16.115-.825 16.115-1.842 0-1.015-7.215-1.841-16.115-1.841" fill="#7E7F7E"/>
    <path d="M93 219c-8.837 0-16-.672-16-1.5 0-.827 7.163-1.5 16-1.5s16 .673 16 1.5c0 .828-7.163 1.5-16 1.5m0-2.89c-8.194 0-14.836.623-14.836 1.39 0 .768 6.642 1.391 14.836 1.391 8.194 0 14.837-.623 14.837-1.391 0-.767-6.643-1.39-14.837-1.39" fill="#7C7D7C"/>
    <path d="M93 219c-8.285 0-15-.672-15-1.5s6.715-1.5 15-1.5c8.284 0 15 .672 15 1.5s-6.716 1.5-15 1.5m0-2.871c-7.576 0-13.717.613-13.717 1.37 0 .759 6.141 1.372 13.717 1.372 7.575 0 13.716-.613 13.716-1.372 0-.757-6.141-1.37-13.716-1.37" fill="#7B7C7B"/>
    <path d="M93 219c-7.732 0-14-.67-14-1.5s6.268-1.5 14-1.5 14 .67 14 1.5-6.268 1.5-14 1.5m0-2.824c-6.828 0-12.363.593-12.363 1.323 0 .732 5.535 1.325 12.363 1.325 6.828 0 12.363-.593 12.363-1.325 0-.73-5.535-1.323-12.363-1.323" fill="#7A7A79"/>
    <path d="M93 219c-6.628 0-12-.672-12-1.5s5.372-1.5 12-1.5c6.627 0 12 .672 12 1.5s-5.373 1.5-12 1.5m-10.94-1.5c0 .755 4.898 1.368 10.94 1.368 6.041 0 10.94-.613 10.94-1.369 0-.754-4.899-1.367-10.94-1.367-6.042 0-10.94.613-10.94 1.367" fill="#787978"/>
    <path d="M93 218c-6.075 0-11-.448-11-1s4.925-1 11-1 11 .448 11 1-4.925 1-11 1m0-1.921c-5.594 0-10.13.412-10.13.92 0 .51 4.536.922 10.13.922 5.594 0 10.13-.412 10.13-.922 0-.508-4.536-.92-10.13-.92" fill="#757675"/>
    <path d="M93 218c-5.523 0-10-.447-10-1 0-.552 4.477-1 10-1s10 .448 10 1c0 .553-4.477 1-10 1m0-1.927c-5.12 0-9.272.416-9.272.927 0 .512 4.151.927 9.272.927 5.122 0 9.273-.415 9.273-.927 0-.511-4.151-.927-9.273-.927" fill="#747473"/>
    <path d="M92.5 218c-5.247 0-9.5-.448-9.5-1s4.253-1 9.5-1 9.5.448 9.5 1-4.253 1-9.5 1m0-1.914c-4.798 0-8.688.409-8.688.913 0 .505 3.89.915 8.688.915 4.797 0 8.687-.41 8.687-.915 0-.504-3.89-.913-8.687-.913" fill="#737472"/>
    <path d="M92.5 218c-4.694 0-8.5-.448-8.5-1 0-.553 3.806-1 8.5-1s8.5.447 8.5 1c0 .552-3.806 1-8.5 1m0-1.883c-4.145 0-7.505.396-7.505.882 0 .488 3.36.884 7.505.884s7.505-.396 7.505-.884c0-.486-3.36-.882-7.505-.882" fill="#727372"/>
    <path d="M93.5 218c-4.143 0-7.5-.448-7.5-1 0-.551 3.357-1 7.5-1s7.5.449 7.5 1c0 .552-3.357 1-7.5 1m0-1.911c-3.777 0-6.838.409-6.838.91 0 .504 3.061.913 6.838.913s6.838-.409 6.838-.912c0-.502-3.061-.911-6.838-.911" fill="#717271"/>
    <path d="M94 217c-3.866 0-7-.224-7-.5s3.134-.5 7-.5 7 .224 7 .5-3.134.5-7 .5m0-.966c-3.604 0-6.525.208-6.525.465 0 .258 2.921.467 6.525.467 3.604 0 6.526-.209 6.526-.467 0-.257-2.922-.465-6.526-.465" fill="#717170"/>
    <path d="M93.5 217c-3.59 0-6.5-.224-6.5-.5s2.91-.5 6.5-.5 6.5.224 6.5.5-2.91.5-6.5.5m0-.96c-3.306 0-5.986.206-5.986.46s2.68.46 5.986.46c3.305 0 5.986-.206 5.986-.46s-2.68-.46-5.986-.46" fill="#707170"/>
    <path d="M93 217c-3.313 0-6-.224-6-.5s2.687-.5 6-.5 6 .224 6 .5-2.687.5-6 .5m0-.964c-3.072 0-5.563.208-5.563.463 0 .257 2.491.465 5.563.465 3.073 0 5.564-.208 5.564-.465 0-.255-2.491-.463-5.564-.463" fill="#6F706F"/>
    <path d="M92.5 217c-3.037 0-5.5-.224-5.5-.5s2.463-.5 5.5-.5 5.5.224 5.5.5-2.463.5-5.5.5m0-.957c-2.778 0-5.03.204-5.03.456 0 .254 2.252.458 5.03.458 2.778 0 5.029-.204 5.029-.458 0-.252-2.25-.456-5.029-.456" fill="#6E6F6E"/>
    <path d="M93 217c-2.761 0-5-.224-5-.5s2.239-.5 5-.5c2.762 0 5 .224 5 .5s-2.238.5-5 .5m0-.942c-2.438 0-4.415.198-4.415.441 0 .245 1.977.442 4.415.442 2.438 0 4.415-.197 4.415-.442 0-.243-1.977-.441-4.415-.441" fill="#6D6E6D"/>
    <path d="M93.5 217c-2.485 0-4.5-.223-4.5-.5 0-.276 2.015-.5 4.5-.5s4.5.224 4.5.5c0 .277-2.015.5-4.5.5m0-.956c-2.266 0-4.102.205-4.102.456 0 .252 1.836.457 4.102.457s4.102-.205 4.102-.457c0-.251-1.836-.456-4.102-.456" fill="#6D6D6C"/>
    <path d="M93 217c-2.21 0-4-.224-4-.5s1.79-.5 4-.5 4 .224 4 .5-1.79.5-4 .5m0-.929c-1.895 0-3.433.193-3.433.428 0 .237 1.538.429 3.433.429 1.896 0 3.433-.192 3.433-.429 0-.235-1.537-.428-3.433-.428" fill="#6C6D6B"/>
    <path d="M93.5 216.917c-1.932 0-3.5-.205-3.5-.459 0-.252 1.568-.458 3.5-.458 1.933 0 3.5.206 3.5.458 0 .254-1.567.459-3.5.459m0-.835c-1.592 0-2.882.168-2.882.376 0 .209 1.29.378 2.882.378s2.883-.169 2.883-.378c0-.208-1.29-.376-2.883-.376" fill="#6B6C6B"/>
    <path d="M94 217.754c-1.658 0-3-.169-3-.378 0-.208 1.342-.376 3-.376 1.657 0 3 .168 3 .376 0 .209-1.343.378-3 .378m0-.638c-1.144 0-2.072.117-2.072.26 0 .145.928.261 2.072.261 1.144 0 2.071-.116 2.071-.261 0-.143-.927-.26-2.071-.26" fill="#6A6B6A"/>
    <path d="M93 217.521c-1.104 0-2-.116-2-.261 0-.143.896-.26 2-.26 1.105 0 2 .117 2 .26 0 .145-.895.261-2 .261m0-.437c-.749 0-1.356.079-1.356.176 0 .099.607.177 1.356.177.749 0 1.356-.078 1.356-.177 0-.097-.607-.176-1.356-.176" fill="#696A69"/>
    <path d="M93.5 217.353c-.829 0-1.5-.078-1.5-.177 0-.097.671-.176 1.5-.176s1.5.079 1.5.176c0 .099-.671.177-1.5.177" fill="#686968"/>
    <path d="M22.048 188.166c2.01 4.331 5.802 7.752 9.672 10.07l2.637 1.58c1.725 1.035 3.449 2.067 5.173 3.102 1.016.606 2.03 1.215 3.043 1.822.809.485 2.145.322 2.385-.75.255-1.153-.654-1.946-1.437-2.58-.701-.571-1.344-1.224-2.033-1.814-1.442-1.234-2.818-2.544-4.254-3.784-.319-.273-.62-.583-.952-.842l1.13.81 2.763 1.986c1.159.835 2.321 1.668 3.48 2.506 1.096.792 2.195 1.585 3.298 2.373.799.57 1.58 1.178 2.413 1.704.711.45 1.925.7 2.555-.04.338-.398.304-.95.25-1.443-.06-.533-.532-1.31-.931-1.674a21.886 21.886 0 01-1.161-1.134c-1.013-1.067-2.19-2.055-3.31-3.007-1.244-1.052-2.477-2.112-3.735-3.147-1.048-.86-2.097-1.72-3.14-2.586-.489-.407-.979-.826-1.488-1.208l-.032-.018 14.719 11.48c.983.766 3.39 2.048 4.418.378.364-.589.15-1.858-.154-2.426-.337-.63-.922-1.07-1.442-1.54-1.086-.976-2.115-1.99-3.24-2.93-2.305-1.924-4.591-3.868-6.963-5.713-.525-.408-1.031-.845-1.57-1.233 1.678 1.478 3.693 2.819 5.548 4.075 2.201 1.488 3.6 2.728 5.33 3.737.451.263 1.061.73 1.595.735.773.009 1.78-.181 2.169-.76.552-.823-.041-2.355-.788-2.998-4.333-3.72-7.383-6.214-11.368-8.673 0 0-3.392-2.047-3.675-2.39 0 0 6.524 3.548 10.795 2.76 0 0 5.626-2.813-3.518-4.707 0 0-5.161-2.289-8.37-3.846 0 0-6.187-3.31-13.617-1.1 0 0-5.968-3.653-7.516-4.941L15 177.365s5.565 7.605 7.048 10.8M166.533 180.433c.397 4.748-1.182 9.577-3.369 13.488l-1.49 2.663c-.974 1.743-1.947 3.486-2.922 5.228-.575 1.024-1.146 2.05-1.72 3.075-.456.818-1.684 1.33-2.414.516-.786-.877-.393-2.012-.032-2.947.323-.84.555-1.722.857-2.572.632-1.777 1.172-3.59 1.798-5.37.14-.393.245-.81.404-1.2-.19.421-.382.84-.573 1.258-.468 1.026-.932 2.054-1.397 3.08-.587 1.294-1.178 2.586-1.76 3.88-.556 1.228-1.109 2.453-1.67 3.677-.407.889-.78 1.8-1.236 2.663-.39.74-1.31 1.552-2.215 1.217-.485-.18-.727-.677-.922-1.131-.212-.494-.185-1.399-.02-1.91.167-.519.31-1.026.44-1.556.346-1.422.873-2.857 1.37-4.234.55-1.522 1.089-3.048 1.662-4.562.479-1.262.956-2.523 1.43-3.786.218-.593.436-1.197.686-1.778l.018-.032-7.012 17.184c-.469 1.147-1.906 3.439-3.608 2.492-.602-.333-1.039-1.541-1.057-2.183-.019-.712.266-1.38.484-2.044.451-1.38.84-2.766 1.346-4.133 1.035-2.8 2.046-5.61 3.179-8.374.25-.612.47-1.24.743-1.841-.717 2.107-1.789 4.257-2.769 6.256-1.161 2.373-1.754 4.136-2.745 5.86-.257.448-.552 1.153-1.007 1.419-.66.385-1.62.714-2.238.401-.876-.446-1.118-2.067-.792-2.99 1.898-5.355 3.295-9.015 5.51-13.104 0 0 1.912-3.44 1.986-3.878 0 0-3.864 6.28-7.917 7.686 0 0-6.212.31.713-5.814 0 0 3.31-4.514 5.301-7.439 0 0 3.69-5.907 11.156-7.624 0 0 3.333-6.098 4.03-7.974L171 169.16s-4.763 7.77-4.467 11.273" fill="#D29B77"/>
    <path d="M78.42 77.113s2.904 8.125-5.42 14.272c0 0 19.027 19.384 44 0 0 0-9.514-.947-5.946-19.385L78.42 77.113" fill="#BC8765"/>
    <path d="M177 163.116l-17.469-45.681c-3.883-11.383-13.826-18.261-24.218-22.519-5.648-2.313-11.301-4.614-16.957-6.916-18.959 20.719-42.719 0-42.719 0-3.512 1.933-7.009 3.897-10.514 5.847-9.759 5.431-21.281 9.48-27.33 19.478L10 162.047s2.54 18.311 9.718 22.953c0 0 2.04-11.19 16.958-9.62l-2.36-11.554 24.581-25.036 3.898 42.504h65.517l5.134-42.483 20.709 23.904-9.25 16.574c15.498-6.416 22.036 4.146 22.036 4.146s7.758-9.379 10.059-20.32" fill="#343433"/>
    <path d="M124.055 46.707C124.017 22.288 110.575 9 94 9 77.427 9 63.985 22.288 63.947 46.707c-.949.014-5.91.348-3.09 5.956 0 0 3.027 3.663 3.244 8.358 0 0 1.073 2.527 2.663 1.371 3.702 9.865 10.514 17.394 17.122 22.107 0 0 11.216 7.306 19.536.81 7.944-4.862 14.81-12.142 18.26-22.68 1.342.45 2.219-1.608 2.219-1.608.216-4.695 3.241-8.358 3.241-8.358 2.82-5.607-2.136-5.942-3.087-5.956" fill="#D29B77"/>
    <path d="M124.724 46.28c-.978 2.074-5.483 4.924-4.996 7.61 0 .147 0 .147 0 0-.604-.943.09-3.863 0-5.016-.16-1.998-.535-3.836-.999-5.79-.971-4.078-2.17-7.734-4.542-11.216-2.795-4.108-5.97-6.806-11.444-6.532-3.294.166-8.243.958-8.788 4.928-2.808-6.663-14.808-6.565-18.787-1.05-2.333 3.233-3.289 6.86-3.838 10.728-.33 2.328-.465 4.693-.915 6.982-.272 1.376-.48 4.216-1.242 5.141 0 0-.773-4.031-4.484-5.906-3.66-1.847-.35-19.82.436-22.49C68.897 10.84 80.133 3.35 93.019 1.987c6.475-.684 12.882-2.38 19.503-1.904-1.44 1.043-2.927 2.45-4.164 3.86 3.763-.604 7.323-1.785 11.337-1.487-2.127 1.557-1.147 3.934-2.214 6.264 4.662-.282 8.115 5.476 10.519 8.787-2.232-.59-4.34-1.737-6.555-2.372 9.813 2.814 6.229 24.884 3.279 31.146" fill="#EBD8B8"/>
    <path d="M75.624 88L68 92.33s13.522 12.6 27.44 12.67c.152 0 .3 0 .452-.003 14.073-.205 23.838-4.305 29.108-14.285L118.483 88s-10.69 9.702-19.857 9.443c0 0-9.771.495-23.002-9.443" fill="#E4E5E3"/>
    <path d="M149 201.234a4.762 4.762 0 01-4.756 4.766H43.754A4.759 4.759 0 0139 201.234v-73.467A4.76 4.76 0 0143.754 123h100.49a4.763 4.763 0 014.756 4.767v73.467" fill="#1A1918"/>
    <path d="M40 128v41.107C40 187.826 42.07 203 44.625 203h97.75c2.555 0 4.625-15.174 4.625-33.893V128H40M55 208h15v-4H55zM115 208h15v-4h-15z" fill="#777776"/>
    <path d="M28 209h133s-1.835 5.793-5.16 8H40.04s-10.878-1.104-12.04-8M118.832 55.446c-1.574 4.46-4.08 6.743-9.91 6.743s-8.79-1.518-9.91-6.743c-1.164-5.445 3.512-8.054 9.327-8.492 10.558-.794 12.269 3.462 10.493 8.492zm-27.843-.35c-1.12 5.226-4.08 6.744-9.91 6.744s-8.335-2.284-9.91-6.743c-1.776-5.031-.064-9.287 10.493-8.492 5.814.437 10.491 3.047 9.327 8.492zm17.6-10.625c-1.629.131-3.18.412-4.592.852-.369.115-.73.242-1.081.381-6.781 2.239-12.163 1.038-14.745.135a14.147 14.147 0 00-1.666-.7h-.002.002c-1.54-.535-3.271-.871-5.093-1.016-12.756-1.019-14.822 4.437-12.676 10.884 1.902 5.717 4.926 8.644 11.972 8.644 7.045 0 10.622-1.946 11.973-8.644.224-1.11.268-2.126.158-3.055 1.696-1.535 3.39-.792 4.384-.062-.179 1.039-.16 2.192.097 3.467C98.67 62.054 102.248 64 109.293 64c7.043 0 10.07-2.927 11.97-8.643 2.148-6.448.08-11.904-12.674-10.886z" fill="#1A1918"/>
    <path fill="#1A1918" d="M70.343 54.204L67.208 55 66 47h5l-.657 7.204M119.659 54.204l3.136.796L124 47h-5l.659 7.204"/>
  </g>
</svg>