<svg xmlns="http://www.w3.org/2000/svg" viewBox="0 0 267 92">
  <g fill="none" fill-rule="evenodd">
    <path d="M9.792 80.16c0 2.208 1.592 3.312 4.776 3.312 3.184 0 4.776-.992 4.776-2.976 0-1.056-.544-1.92-1.632-2.592-1.088-.672-2.408-1.232-3.96-1.68a58.887 58.887 0 01-4.656-1.56 9.718 9.718 0 01-3.96-2.784c-1.088-1.264-1.632-2.84-1.632-4.728 0-8.032 5.168-12.048 15.504-12.048 3.776 0 6.632.712 8.568 2.136 1.936 1.424 2.904 3.4 2.904 5.928 0 .928-.12 1.816-.36 2.664-.24.848-.488 1.448-.744 1.8l-.384.576h-8.496c.704-.736 1.056-1.664 1.056-2.784 0-2.08-1.36-3.12-4.08-3.12-3.424 0-5.136 1.088-5.136 3.264 0 1.088.544 1.952 1.632 2.592 1.088.64 2.408 1.144 3.96 1.512 1.552.368 3.112.824 4.68 1.368a9.11 9.11 0 013.984 2.712c1.088 1.264 1.632 2.904 1.632 4.92 0 4.064-1.216 7.08-3.648 9.048-2.432 1.968-6.176 2.952-11.232 2.952-5.056 0-8.512-.896-10.368-2.688C1.6 86.64.912 84.784.912 82.416c0-.896.096-1.872.288-2.928l.144-.768h8.64l-.096.576a4.45 4.45 0 00-.096.864zM50.4 55.104c7.712 0 11.568 3.152 11.568 9.456 0 1.056-.112 2.192-.336 3.408l-1.68 9.6c-.768 4.448-2.432 7.744-4.992 9.888s-6.16 3.216-10.8 3.216c-4.64 0-7.872-1.072-9.696-3.216-1.248-1.472-1.872-3.504-1.872-6.096 0-1.152.128-2.416.384-3.792l1.68-9.6c1.504-8.576 6.752-12.864 15.744-12.864zm-4.944 28.128c1.6 0 2.88-.416 3.84-1.248.96-.832 1.632-2.368 2.016-4.608l1.632-9.216c.096-.64.144-1.216.144-1.728 0-2.592-1.312-3.888-3.936-3.888-3.296.064-5.264 1.936-5.904 5.616l-1.632 9.216c-.128.8-.192 1.632-.192 2.496 0 2.24 1.344 3.36 4.032 3.36zm41.808-5.904H74.496L72.288 90H63.6l6.096-34.56h24.096l-1.344 7.488H76.992l-1.2 6.912H88.56l-1.296 7.488zm39.456-14.4h-11.808L110.16 90h-8.688l4.752-27.072H94.368l1.344-7.488h32.352l-1.344 7.488zm30.528-7.488l-.816 26.16h1.104l8.352-26.16h9.408L163.44 90h-14.4l1.296-22.128L143.904 90h-14.4l.336-34.56h9.408l-.864 26.16h1.104l8.4-26.16h9.36zM190.128 90l.288-7.536H182.4L180.048 90h-9.168l12.336-34.56h15.84l.192 34.56h-9.12zm-1.968-26.16l-3.792 12.192h6.288l.528-12.192h-3.024zm35.664-8.4c3.648 0 6.24.8 7.776 2.4 1.152 1.216 1.728 2.752 1.728 4.608 0 .64-.064 1.312-.192 2.016l-.672 3.744c-.384 2.08-1.048 3.76-1.992 5.04-.944 1.28-1.992 2.192-3.144 2.736L231.696 90H222l-4.032-12.912h-2.976L213.024 90h-9.216l6.096-34.56h13.92zm-3.024 7.488h-3.6l-1.248 8.352h3.36c1.696 0 2.912-.408 3.648-1.224.736-.816 1.104-1.896 1.104-3.24 0-2.592-1.088-3.888-3.264-3.888zM259.392 90h-24.096l6.096-34.56h24.096l-1.344 7.488h-15.456l-1.104 6.48h12.768l-1.344 7.488H246.24l-.96 5.616h15.456L259.392 90z" fill="#E4DCCF"/>
    <path d="M20.3 1.6l2.14 6.9 4.6-6.9h3.78L28.28 16h-3.62l1.44-8.12-3.08 4.84H20.4l-1.36-4.84L17.6 16H14l2.54-14.4h3.76zm16.96 0L34.74 16h-3.62l2.54-14.4h3.6zm8.44 0c1.747 0 2.993.44 3.74 1.32.547.667.82 1.5.82 2.5 0 .36-.033.74-.1 1.14l-.78 4.46c-.267 1.507-.92 2.713-1.96 3.62S45.033 16 43.38 16h-5.82L40.1 1.6h5.6zm-1.26 3.12h-1.3l-1.42 8.16h1.9c.627 0 1.117-.17 1.47-.51.353-.34.597-.897.73-1.67l.58-3.28c.053-.293.08-.56.08-.8 0-1.267-.68-1.9-2.04-1.9zM59.08 1.6c1.747 0 2.993.44 3.74 1.32.547.667.82 1.5.82 2.5 0 .36-.033.74-.1 1.14l-.78 4.46c-.267 1.507-.92 2.713-1.96 3.62S58.413 16 56.76 16h-5.82l2.54-14.4h5.6zm-1.26 3.12h-1.3l-1.42 8.16H57c.627 0 1.117-.17 1.47-.51.353-.34.597-.897.73-1.67l.58-3.28c.053-.293.08-.56.08-.8 0-1.267-.68-1.9-2.04-1.9zM73.44 16h-9.12l2.54-14.4h3.6l-1.98 11.28H74L73.44 16zm11.64 0H75.04l2.54-14.4h10.04l-.56 3.12h-6.44l-.46 2.7h5.32l-.56 3.12H79.6l-.4 2.34h6.44L85.08 16z" fill="#766242"/>
    <path d="M26.192 48H8.12l4.572-25.92h18.072l-1.008 5.616H18.164l-.828 4.86h9.576l-1.008 5.616h-9.576l-.72 4.212H27.2L26.192 48zm28.692-25.92L50.348 48h-6.516l-4.536-14.184L36.848 48h-6.516l4.572-25.92H41.6l4.464 13.248 2.34-13.248h6.48zm9.576 26.424c-3.408 0-5.76-.792-7.056-2.376-.888-1.104-1.332-2.616-1.332-4.536 0-.888.096-1.86.288-2.916l1.26-7.2c1.128-6.432 5.064-9.648 11.808-9.648 2.784 0 4.896.594 6.336 1.782 1.44 1.188 2.16 2.814 2.16 4.878 0 .84-.114 1.692-.342 2.556-.228.864-.45 1.512-.666 1.944l-.36.648h-6.372c.624-.864.936-1.86.936-2.988 0-2.16-.9-3.24-2.7-3.24-2.424 0-3.876 1.404-4.356 4.212l-1.224 6.912c-.12.648-.18 1.284-.18 1.908 0 1.656.978 2.484 2.934 2.484 1.956 0 3.21-.984 3.762-2.952h-2.952l.72-3.996h9.54l-.576 3.096-.18 1.044c-1.008 5.592-4.824 8.388-11.448 8.388zM89.84 22.08L85.304 48h-6.516l4.572-25.92h6.48zm25.092 0L110.396 48h-6.516l-4.536-14.184L96.896 48H90.38l4.572-25.92h6.696l4.464 13.248 2.34-13.248h6.48zM133.544 48h-18.072l4.572-25.92h18.072l-1.008 5.616h-11.592l-.828 4.86h9.576l-1.008 5.616h-9.576l-.72 4.212h11.592L133.544 48z" fill="#A69984"/>
  </g>
</svg>
