<svg viewBox="0 -60 512 512" xmlns="http://www.w3.org/2000/svg">
  <path fill="#9e9e9e" d="M512 75h-63.813l-5.914 5.395C393.953 29.129 326.867 0 256 0 187.621 0 123.332 26.629 74.98 74.98 26.63 123.332 0 187.621 0 256v15h60v-15c0-74.438 60.563-135 135-135 27.379 0 53.738 8.148 76.227 23.563 19.113 13.101 34.382 30.664 44.617 51.183 0 0-102.114 93.172-102.274 93.332-23.394 23.395-23.394 61.461 0 84.856 11.332 11.332 26.399 17.574 42.426 17.574s31.094-6.242 42.426-17.574C298.594 373.762 391.93 271 391.93 271H512v-15c0-33.434-6.328-65.86-18.816-96.488L512 138.797zm-30 30v22.203L313.102 313.176a59.66 59.66 0 00-14.68-24.098c-6.89-6.89-15.168-11.887-24.195-14.754L459.817 105zM30.676 241h-.188c3.239-49.754 22.559-96.383 55.446-133.852l14.043 14.04C61.52 148.375 35.148 191.57 30.676 241zm96.246-135.293l-19.766-19.766C144.621 53.055 191.25 33.738 241 30.504v66.988C226.18 93.203 210.727 91 195 91c-24.262 0-47.313 5.266-68.078 14.707zm161.265 14.11A165.563 165.563 0 00271 109.511V30.516c56.8 3.75 109.902 28.695 149.102 70.105l-81.403 74.27c-12.344-21.875-29.523-40.688-50.512-55.075zm-53.406 232.902c-11.64-11.645-11.691-30.551-.156-42.262l2.445-2.23c5.332-4.356 11.946-6.723 18.926-6.723 8.012 0 15.547 3.121 21.211 8.789 10.938 10.937 11.645 28.285 2.129 40.055l-2.3 2.535c-5.65 5.558-13.11 8.62-21.04 8.62-8.016.005-15.55-3.116-21.215-8.784zM481.516 241h-62.34l51.293-56.477A223.77 223.77 0 01481.516 241zm0 0"/>
</svg>
