<svg xmlns="http://www.w3.org/2000/svg" viewBox="0 0 512 512">
  <path fill="#9e9e9e" d="M511.4 38.222C510.291 17.884 494.116 1.711 473.778.601 432.74-1.641 352.436.54 275.648 40.257c-39.145 20.248-80.545 54.577-113.584 94.185-.407.488-.803.979-1.207 1.468l-74.98 5.792c-12.342.954-23.335 7.423-30.161 17.747L4.562 236.821c-5.177 7.83-6 17.629-2.203 26.212 3.798 8.584 11.602 14.566 20.877 16.003l63.171 9.784c-.223 1.228-.447 2.455-.652 3.683-2.103 12.58 2.065 25.514 11.151 34.599l87.992 87.993c7.533 7.533 17.712 11.686 28.142 11.686a39.21 39.21 0 006.458-.536c1.228-.205 2.455-.429 3.683-.652l9.784 63.172c1.437 9.275 7.419 17.08 16.001 20.877a27.43 27.43 0 0011.112 2.36 27.35 27.35 0 0015.101-4.562l77.372-51.155c10.325-6.827 16.793-17.82 17.745-30.161l5.792-74.979c.489-.404.981-.8 1.469-1.207 39.609-33.039 73.939-74.439 94.186-113.585 39.719-76.791 41.896-157.096 39.657-198.131zM336.006 431.259l-74.011 48.933-9.536-61.565c31.28-9.197 62.223-23.927 91.702-43.66l-3.773 48.845a9.772 9.772 0 01-4.382 7.447zm-129.895-37.377l-87.993-87.993c-2.245-2.246-3.283-5.401-2.774-8.44 2.616-15.643 6.681-30.534 11.713-44.562l132.028 132.028c-16.848 6.035-31.939 9.635-44.534 11.741-3.044.506-6.195-.529-8.44-2.774zM88.188 171.613l48.844-3.773c-19.734 29.479-34.464 60.422-43.661 91.702l-61.564-9.535 48.934-74.012a9.772 9.772 0 017.447-4.382zm270.155 155.286c-24.233 20.213-47.756 34.833-69.438 45.412L139.684 223.09c13.858-28.304 30.771-51.873 45.417-69.431 30.575-36.655 68.602-68.276 104.331-86.756 70.474-36.453 144.725-38.416 182.713-36.348a9.839 9.839 0 019.301 9.302c2.071 37.988.104 112.238-36.349 182.713-18.479 35.728-50.1 73.754-86.754 104.329z"/>
  <path fill="#9e9e9e" d="M350.721 236.243c19.202-.002 38.412-7.312 53.031-21.931 14.166-14.165 21.966-32.999 21.966-53.031s-7.801-38.866-21.966-53.031c-29.242-29.243-76.822-29.241-106.062 0-14.166 14.165-21.967 32.999-21.967 53.031s7.802 38.866 21.967 53.031c14.622 14.622 33.822 21.933 53.031 21.931zm-31.82-106.781c8.772-8.773 20.295-13.159 31.818-13.159 11.524 0 23.047 4.386 31.819 13.159 8.499 8.499 13.179 19.799 13.179 31.818s-4.68 23.32-13.179 31.819c-17.544 17.545-46.093 17.544-63.638 0-8.499-8.499-13.18-19.799-13.18-31.818s4.682-23.32 13.181-31.819zM15.301 421.938c3.839 0 7.678-1.464 10.606-4.394l48.973-48.973c5.858-5.858 5.858-15.355 0-21.213-5.857-5.858-15.355-5.858-21.213 0L4.695 396.331c-5.858 5.858-5.858 15.355 0 21.213a14.95 14.95 0 0010.606 4.394zM119.761 392.239c-5.857-5.858-15.355-5.858-21.213 0L4.394 486.394c-5.858 5.858-5.858 15.355 0 21.213C7.323 510.536 11.161 512 15 512s7.678-1.464 10.606-4.394l94.154-94.154c5.859-5.858 5.859-15.355.001-21.213zM143.429 437.12l-48.973 48.973c-5.858 5.858-5.858 15.355 0 21.213 2.929 2.929 6.768 4.394 10.606 4.394s7.678-1.464 10.606-4.394l48.973-48.973c5.858-5.858 5.858-15.355 0-21.213-5.857-5.858-15.355-5.858-21.212 0z"/>
</svg>
