<svg version="1.1" xmlns="http://www.w3.org/2000/svg" viewBox="0 0 3882.2635271333247 1140.6523398938332" width="7764.527054266649" height="2281.3046797876664">
  <!-- svg-source:excalidraw -->
  
  <defs>
    <style>
      @font-face {
        font-family: "Virgil";
        src: url("https://excalidraw.com/Virgil.woff2");
      }
      @font-face {
        font-family: "Cascadia";
        src: url("https://excalidraw.com/Cascadia.woff2");
      }
    </style>
  </defs>
  <rect x="0" y="0" width="3882.2635271333247" height="1140.6523398938332" fill="#ffffff"></rect><g stroke-linecap="round" transform="translate(10 39.71484375) rotate(0 16.3515625 14.302734375)"><path d="M18.91 0.22 C22.14 0.73, 26.54 3.16, 28.89 5.45 C31.24 7.74, 33.14 10.75, 33.02 13.97 C32.9 17.19, 30.49 22.24, 28.17 24.78 C25.85 27.31, 22.45 28.77, 19.1 29.17 C15.74 29.57, 11.03 28.88, 8.03 27.19 C5.02 25.49, 2.35 22.05, 1.08 19.01 C-0.18 15.97, -0.95 11.76, 0.44 8.96 C1.83 6.16, 5.9 3.41, 9.41 2.21 C12.91 1, 19.11 1.68, 21.49 1.73 C23.86 1.78, 23.73 2.37, 23.67 2.53 M24.94 3.1 C27.84 3.93, 28.59 5.2, 29.99 7.63 C31.38 10.05, 34.08 14.72, 33.3 17.67 C32.51 20.61, 28.4 23.27, 25.27 25.28 C22.14 27.29, 18.22 29.77, 14.51 29.73 C10.79 29.69, 5.51 27.28, 2.97 25.02 C0.43 22.77, -0.59 19.67, -0.74 16.21 C-0.89 12.75, -0.04 6.97, 2.08 4.24 C4.21 1.51, 8.38 0.33, 12 -0.18 C15.62 -0.68, 21.71 0.87, 23.8 1.23 C25.89 1.6, 24.62 1.85, 24.54 2.03" stroke="#000000" stroke-width="1" fill="none"></path></g><g transform="translate(163.34970901785744 16.96263272102351) rotate(0 163.5 37.5)"><text x="0" y="18" font-family="Virgil, Segoe UI Emoji" font-size="20px" fill="#000000" text-anchor="start" style="white-space: pre;" direction="ltr">Scenario: The user refreshes the</text><text x="0" y="43" font-family="Virgil, Segoe UI Emoji" font-size="20px" fill="#000000" text-anchor="start" style="white-space: pre;" direction="ltr">current page or opens the SPA</text><text x="0" y="68" font-family="Virgil, Segoe UI Emoji" font-size="20px" fill="#000000" text-anchor="start" style="white-space: pre;" direction="ltr">in a second tab.</text></g><g transform="translate(638.91015625 10) rotate(0 121 50)"><text x="0" y="18" font-family="Virgil, Segoe UI Emoji" font-size="20px" fill="#000000" text-anchor="start" style="white-space: pre;" direction="ltr">Are you using the</text><text x="0" y="43" font-family="Virgil, Segoe UI Emoji" font-size="20px" fill="#000000" text-anchor="start" style="white-space: pre;" direction="ltr">'Authorization Code Flow</text><text x="0" y="68" font-family="Virgil, Segoe UI Emoji" font-size="20px" fill="#000000" text-anchor="start" style="white-space: pre;" direction="ltr">with Proof Key for Code</text><text x="0" y="93" font-family="Virgil, Segoe UI Emoji" font-size="20px" fill="#000000" text-anchor="start" style="white-space: pre;" direction="ltr">Exchange (PKCE)'?</text></g><g transform="translate(923.5 25.48046875) rotate(0 16.5 12.5)"><text x="0" y="18" font-family="Virgil, Segoe UI Emoji" font-size="20px" fill="#000000" text-anchor="start" style="white-space: pre;" direction="ltr">Yes</text></g><g transform="translate(702.05078125 136.43359375) rotate(0 12.5 12.5)"><text x="0" y="18" font-family="Virgil, Segoe UI Emoji" font-size="20px" fill="#000000" text-anchor="start" style="white-space: pre;" direction="ltr">No</text></g><g transform="translate(1568.652111279371 41.279110680632016) rotate(0 138.4999999999999 12.5)"><text x="0" y="18" font-family="Virgil, Segoe UI Emoji" font-size="20px" fill="#000000" text-anchor="start" style="white-space: pre;" direction="ltr">Are refresh tokens enabled?</text></g><g transform="translate(1649.78348371056 85.3547421911696) rotate(0 12.5 12.500000000000014)"><text x="0" y="18" font-family="Virgil, Segoe UI Emoji" font-size="20px" fill="#000000" text-anchor="start" style="white-space: pre;" direction="ltr">No</text></g><g transform="translate(1889.4521653030679 15.269265758204426) rotate(0 16.5 12.5)"><text x="0" y="18" font-family="Virgil, Segoe UI Emoji" font-size="20px" fill="#000000" text-anchor="start" style="white-space: pre;" direction="ltr">Yes</text></g><g stroke-linecap="round"><g transform="translate(51.95703125 53.80078125) rotate(0 46.973117267144914 -0.45882209306108734)"><path d="M-0.49 0.73 C-0.5 0.91, -17.61 0.47, -0.47 -0.05 C16.67 -0.58, 85.44 -2.31, 102.34 -2.42 M1.46 0.07 C1.28 0.55, -18.38 1.73, -1.67 1.46 C15.05 1.18, 84.7 -0.87, 101.75 -1.58" stroke="#000000" stroke-width="1" fill="none"></path></g><g transform="translate(51.95703125 53.80078125) rotate(0 46.973117267144914 -0.45882209306108734)"><path d="M75.15 8.86 C81.35 7.34, 87.3 2.05, 103.11 -3.55 M74.75 9.51 C79.22 7.14, 86.64 3.71, 102.66 -1.88" stroke="#000000" stroke-width="1" fill="none"></path></g><g transform="translate(51.95703125 53.80078125) rotate(0 46.973117267144914 -0.45882209306108734)"><path d="M74.45 -11.65 C80.64 -7.72, 86.77 -7.56, 103.11 -3.55 M74.05 -11 C78.8 -8.85, 86.37 -7.76, 102.66 -1.88" stroke="#000000" stroke-width="1" fill="none"></path></g></g><g stroke-linecap="round"><g transform="translate(504.63095901785755 49.99387613791424) rotate(0 57.37665975671098 -0.6613678323816714)"><path d="M0.25 -1.17 C19.26 -1.29, 94.4 -0.3, 113.55 -0.55 M-1.07 0.83 C18.35 0.38, 96.5 -1.69, 115.83 -2.15" stroke="#000000" stroke-width="1" fill="none"></path></g><g transform="translate(504.63095901785755 49.99387613791424) rotate(0 57.37665975671098 -0.6613678323816714)"><path d="M85.95 7.42 C96.85 7.24, 100.61 1.83, 116.59 -1.27 M87.71 9.54 C94.28 6.75, 100.63 3.33, 115.54 -1.78" stroke="#000000" stroke-width="1" fill="none"></path></g><g transform="translate(504.63095901785755 49.99387613791424) rotate(0 57.37665975671098 -0.6613678323816714)"><path d="M85.43 -13.09 C96.5 -7.91, 100.39 -7.94, 116.59 -1.27 M87.19 -10.98 C93.7 -9.4, 100.15 -8.46, 115.54 -1.78" stroke="#000000" stroke-width="1" fill="none"></path></g></g><g transform="translate(644.8046875 186.18359375) rotate(0 131 50)"><text x="0" y="18" font-family="Virgil, Segoe UI Emoji" font-size="20px" fill="#a61e4d" text-anchor="start" style="white-space: pre;" direction="ltr">This flow chart does not</text><text x="0" y="43" font-family="Virgil, Segoe UI Emoji" font-size="20px" fill="#a61e4d" text-anchor="start" style="white-space: pre;" direction="ltr">cover alternative flows to</text><text x="0" y="68" font-family="Virgil, Segoe UI Emoji" font-size="20px" fill="#a61e4d" text-anchor="start" style="white-space: pre;" direction="ltr">Authorization Code Flow </text><text x="0" y="93" font-family="Virgil, Segoe UI Emoji" font-size="20px" fill="#a61e4d" text-anchor="start" style="white-space: pre;" direction="ltr">with PKCE.</text></g><g stroke-linecap="round"><g transform="translate(759.46484375 120.8125) rotate(0 0.6912840889719973 28.900145870638056)"><path d="M0.79 -0.51 C0.58 9.5, -0.38 49.69, -0.38 59.63 M-0.26 -1.83 C-0.18 7.87, 1.71 47.44, 1.76 57.83" stroke="#000000" stroke-width="1" fill="none"></path></g><g transform="translate(759.46484375 120.8125) rotate(0 0.6912840889719973 28.900145870638056)"><path d="M-9.97 28.59 C-4.17 40.58, -0.99 50.71, 0.78 58.9 M-9.13 30.09 C-5.3 39.81, -3.31 48.16, 2.38 57.71" stroke="#000000" stroke-width="1" fill="none"></path></g><g transform="translate(759.46484375 120.8125) rotate(0 0.6912840889719973 28.900145870638056)"><path d="M10.21 28.02 C8.55 40.35, 4.27 50.69, 0.78 58.9 M11.05 29.52 C8.7 39.35, 4.53 47.89, 2.38 57.71" stroke="#000000" stroke-width="1" fill="none"></path></g></g><g stroke-linecap="round"><g transform="translate(897.33203125 56.96170570324068) rotate(0 327.1337807720147 -0.556485637117504)"><path d="M-1.15 1.17 C108.13 1.2, 546.2 -0.22, 655.41 -0.73 M0.45 0.74 C109.7 0.54, 546.26 -2.05, 655.07 -2.29" stroke="#000000" stroke-width="1" fill="none"></path></g><g transform="translate(897.33203125 56.96170570324068) rotate(0 327.1337807720147 -0.556485637117504)"><path d="M628.88 10.02 C636.63 5.26, 642.44 2.83, 654.9 -1.69 M626.48 8.22 C636.71 4.1, 647.84 1.04, 654.78 -1.77" stroke="#000000" stroke-width="1" fill="none"></path></g><g transform="translate(897.33203125 56.96170570324068) rotate(0 327.1337807720147 -0.556485637117504)"><path d="M628.79 -10.51 C636.42 -9.56, 642.25 -6.29, 654.9 -1.69 M626.4 -12.3 C636.63 -9.06, 647.8 -4.77, 654.78 -1.77" stroke="#000000" stroke-width="1" fill="none"></path></g></g><g stroke-linecap="round" transform="translate(747.985510559289 355.1839630957328) rotate(0 17.79474301213679 15.57421875)"><path d="M19.69 0.4 C23.49 0.73, 29.17 3.9, 31.93 6.22 C34.7 8.54, 36.43 11.13, 36.28 14.31 C36.14 17.49, 33.62 22.47, 31.07 25.31 C28.52 28.14, 24.71 30.76, 20.98 31.31 C17.26 31.86, 12.03 30.25, 8.7 28.63 C5.38 27.02, 2.37 24.58, 1.04 21.61 C-0.28 18.64, -0.6 14.1, 0.77 10.8 C2.13 7.5, 5.72 3.66, 9.24 1.81 C12.76 -0.04, 19.72 -0.08, 21.89 -0.3 C24.06 -0.53, 22.47 0.17, 22.25 0.48 M17.18 0.45 C20.68 0.46, 26.8 3.35, 30.03 5.27 C33.25 7.2, 36.07 8.91, 36.53 12 C36.99 15.1, 35.03 20.95, 32.77 23.84 C30.51 26.74, 26.62 28.43, 22.96 29.36 C19.29 30.29, 14.4 30.27, 10.77 29.45 C7.13 28.62, 2.69 27.39, 1.14 24.43 C-0.41 21.48, 0.75 15.31, 1.44 11.74 C2.14 8.16, 2.71 4.71, 5.31 2.97 C7.92 1.23, 14.86 1.86, 17.06 1.31 C19.25 0.75, 18.35 -0.36, 18.48 -0.34" stroke="#000000" stroke-width="1" fill="none"></path></g><g stroke-linecap="round" transform="translate(755.528479309289 360.5277130957328) rotate(0 10.470703125 10.470703125)"><path d="M2.51 3.51 C2.51 3.51, 2.51 3.51, 2.51 3.51 M2.51 3.51 C2.51 3.51, 2.51 3.51, 2.51 3.51 M2.1 11.06 C2.69 8.41, 7.58 4.49, 10.38 1.86 M1.54 11.75 C3.38 8.89, 5.71 5.24, 9.56 1.58 M2.45 17.14 C5.31 12.84, 8.77 7.83, 14.08 2.89 M2.8 16.3 C7.76 10.43, 11.72 5.38, 14.14 2.28 M5.76 18.2 C8.47 14.33, 13.61 8.48, 17.11 5.22 M4.21 18.36 C9.39 13.97, 15.09 7.12, 17.26 4.76 M8.19 22.04 C11.37 18.67, 16.16 14.32, 19.48 8.87 M9.33 21.14 C12.9 16.16, 14.79 12.16, 20.03 7.56 M13.48 20.3 C15.96 18.49, 18.14 15.99, 20.67 13.69 M14.22 20.89 C16.21 18.77, 17.07 16.74, 21 12.52" stroke="#868e96" stroke-width="0.5" fill="none"></path><path d="M9.32 0.91 C11.47 0.73, 15.35 1.38, 17.06 2.33 C18.78 3.29, 19.09 4.69, 19.61 6.65 C20.13 8.6, 20.84 12.01, 20.2 14.09 C19.56 16.17, 17.9 18.07, 15.79 19.14 C13.69 20.2, 9.8 20.9, 7.58 20.5 C5.36 20.09, 3.72 18.33, 2.49 16.71 C1.25 15.09, 0.2 12.93, 0.16 10.78 C0.12 8.63, 0.64 5.64, 2.25 3.81 C3.86 1.98, 8.29 0.47, 9.82 -0.2 C11.34 -0.87, 11.36 -0.42, 11.41 -0.21 M15.54 1.67 C17.67 2.83, 20.88 5.51, 21.53 7.41 C22.18 9.31, 20.27 11.23, 19.44 13.08 C18.62 14.92, 18.43 17.29, 16.6 18.48 C14.76 19.66, 10.82 20.49, 8.43 20.17 C6.04 19.86, 3.42 17.92, 2.23 16.6 C1.04 15.29, 1.48 14.56, 1.29 12.3 C1.1 10.05, 0.07 5.22, 1.1 3.06 C2.12 0.9, 4.88 -0.43, 7.43 -0.68 C9.98 -0.94, 15.24 1.22, 16.39 1.51 C17.54 1.81, 14.66 1.17, 14.34 1.08" stroke="#000000" stroke-width="1" fill="none"></path></g><g stroke-linecap="round"><g transform="translate(763.9947627943636 293.3722550688004) rotate(0 -0.3136385766596277 27.194477101410712)"><path d="M0.35 -0.32 C0.44 8.94, -0.22 45.33, -0.43 54.83 M-0.92 -1.53 C-0.84 7.92, -0.88 46.52, -0.99 55.92" stroke="#000000" stroke-width="1" fill="none"></path></g><g transform="translate(763.9947627943636 293.3722550688004) rotate(0 -0.3136385766596277 27.194477101410712)"><path d="M-10.91 30.96 C-9.88 35.94, -4.73 43.24, 0.42 54.23 M-9.9 29.09 C-8.81 35.66, -5.66 41.84, -0.83 56.68" stroke="#000000" stroke-width="1" fill="none"></path></g><g transform="translate(763.9947627943636 293.3722550688004) rotate(0 -0.3136385766596277 27.194477101410712)"><path d="M8.14 31.05 C4.95 36.07, 5.88 43.34, 0.42 54.23 M9.15 29.18 C5.79 35.66, 4.49 41.81, -0.83 56.68" stroke="#000000" stroke-width="1" fill="none"></path></g></g><g stroke-linecap="round"><g transform="translate(1858.0103826201203 50.605280362107464) rotate(0 509.1518254536045 54.403093677597795)"><path d="M-0.03 -0.32 C373.3 -3.33, 747.59 -4.22, 1016.75 -3.95 M-0.35 0.17 C357.55 1.51, 714.15 0.39, 1017.83 -3.72 M1018.66 -1.87 C1017.7 37.03, 1018.73 76.58, 1016.47 112.99 M1017.11 -4.18 C1016.39 27.24, 1017.2 58.15, 1018.27 111.6" stroke="#000000" stroke-width="1" fill="none"></path></g><g transform="translate(1858.0103826201203 50.605280362107464) rotate(0 509.1518254536045 54.403093677597795)"><path d="M1007.38 82.82 C1010.5 93.14, 1015.77 104.46, 1016.51 110.63 M1006.56 84.06 C1011.85 94.01, 1014.11 104.16, 1019.21 111.21" stroke="#000000" stroke-width="1" fill="none"></path></g><g transform="translate(1858.0103826201203 50.605280362107464) rotate(0 509.1518254536045 54.403093677597795)"><path d="M1027.89 82.41 C1023.49 92.96, 1021.22 104.44, 1016.51 110.63 M1027.08 83.65 C1025.16 93.61, 1020.21 103.91, 1019.21 111.21" stroke="#000000" stroke-width="1" fill="none"></path></g></g><g transform="translate(1566.7301660290782 172.21066200235765) rotate(0 167 37.5)"><text x="0" y="18" font-family="Virgil, Segoe UI Emoji" font-size="20px" fill="#000000" text-anchor="start" style="white-space: pre;" direction="ltr">Is the Auth0 client configured to</text><text x="0" y="43" font-family="Virgil, Segoe UI Emoji" font-size="20px" fill="#000000" text-anchor="start" style="white-space: pre;" direction="ltr">store tokens in browser memory</text><text x="0" y="68" font-family="Virgil, Segoe UI Emoji" font-size="20px" fill="#000000" text-anchor="start" style="white-space: pre;" direction="ltr">(the default) or local storage?</text></g><g transform="translate(1566.2463822230877 638.3597480371266) rotate(0 136.4999999999999 40)"><text x="0" y="14" font-family="Virgil, Segoe UI Emoji" font-size="16px" fill="#495057" text-anchor="start" style="white-space: pre;" direction="ltr">If you instead use refresh tokens</text><text x="0" y="34" font-family="Virgil, Segoe UI Emoji" font-size="16px" fill="#495057" text-anchor="start" style="white-space: pre;" direction="ltr">or a custom domain for Auth0,</text><text x="0" y="54" font-family="Virgil, Segoe UI Emoji" font-size="16px" fill="#495057" text-anchor="start" style="white-space: pre;" direction="ltr">the browser will be able to silently</text><text x="0" y="74" font-family="Virgil, Segoe UI Emoji" font-size="16px" fill="#495057" text-anchor="start" style="white-space: pre;" direction="ltr">get a new Access Token.</text></g><g stroke-linecap="round"><g transform="translate(1555.4755315347497 637.6630028995855) rotate(0 -12.563471683914258 -9.204688115178271)"><path d="M1.67 0.07 C-8.19 -4.51, -13.31 -8.51, -26.79 -18.48" stroke="#495057" stroke-width="1.5" fill="none" stroke-dasharray="1.5 7"></path></g><g transform="translate(1555.4755315347497 637.6630028995855) rotate(0 -12.563471683914258 -9.204688115178271)"><path d="M-29.33 -26.73 C-27.94 -27.21, -26.81 -26.28, -25.44 -25.52 C-24.07 -24.76, -22.06 -23.57, -21.1 -22.17 C-20.14 -20.78, -19.5 -18.62, -19.67 -17.13 C-19.84 -15.65, -21.04 -14.41, -22.13 -13.29 C-23.21 -12.17, -24.49 -10.69, -26.2 -10.4 C-27.92 -10.12, -31.02 -10.59, -32.4 -11.59 C-33.77 -12.6, -34.19 -14.56, -34.43 -16.45 C-34.66 -18.34, -34.74 -21.29, -33.81 -22.94 C-32.88 -24.58, -29.76 -25.78, -28.84 -26.32 C-27.93 -26.87, -28.41 -26.51, -28.31 -26.21" stroke="none" stroke-width="0" fill="#495057"></path></g></g><g stroke-linecap="round"><g transform="translate(1694.1347965816112 71.11529122887856) rotate(0 0.942178197505882 49.21652006646133)"><path d="M-0.24 0.95 C1.54 37.18, -1.7 78.83, 2.13 97.59 M0.07 0.58 C0.33 26.94, 0.56 54.89, 1.16 97.85" stroke="#000000" stroke-width="1" fill="none"></path></g><g transform="translate(1694.1347965816112 71.11529122887856) rotate(0 0.942178197505882 49.21652006646133)"><path d="M-9.7 70.74 C-3.71 79.24, -3.04 93.14, 2.54 97.35 M-9.4 70.38 C-7.09 77.42, -4.15 86.12, 1.57 97.61" stroke="#000000" stroke-width="1" fill="none"></path></g><g transform="translate(1694.1347965816112 71.11529122887856) rotate(0 0.942178197505882 49.21652006646133)"><path d="M10.81 70.48 C8.68 79.07, 1.22 93.07, 2.54 97.35 M11.12 70.11 C7.79 77.37, 5.09 86.14, 1.57 97.61" stroke="#000000" stroke-width="1" fill="none"></path></g></g><g transform="translate(1472.086282449851 455.8977271148966) rotate(0 16.5 12.5)"><text x="0" y="18" font-family="Virgil, Segoe UI Emoji" font-size="20px" fill="#000000" text-anchor="start" style="white-space: pre;" direction="ltr">Yes</text></g><g stroke-linecap="round"><g transform="translate(1428.0032139264063 442.25257003200636) rotate(0 32.53318152118072 44.21944384064551)"><path d="M1.5 -1.91 C19.02 27.66, 40.81 57.52, 65.15 89.3 M-0.28 0 C13.13 18.76, 25.61 37.02, 65.35 90.35" stroke="#000000" stroke-width="1" fill="none"></path></g><g transform="translate(1428.0032139264063 442.25257003200636) rotate(0 32.53318152118072 44.21944384064551)"><path d="M41.85 71.86 C47.06 77.78, 56.04 84.03, 65.36 89.07 M40.07 73.77 C45.93 77.71, 50.28 80.99, 65.56 90.12" stroke="#000000" stroke-width="1" fill="none"></path></g><g transform="translate(1428.0032139264063 442.25257003200636) rotate(0 32.53318152118072 44.21944384064551)"><path d="M58.36 59.67 C58.22 69.46, 61.94 79.6, 65.36 89.07 M56.57 61.58 C59 68.05, 60.02 73.8, 65.56 90.12" stroke="#000000" stroke-width="1" fill="none"></path></g></g><g transform="translate(1155.8273528163998 456.58220611788397) rotate(0 12.5 12.5)"><text x="0" y="18" font-family="Virgil, Segoe UI Emoji" font-size="20px" fill="#000000" text-anchor="start" style="white-space: pre;" direction="ltr">No</text></g><g stroke-linecap="round"><g transform="translate(1224.0340520017107 444.8421539437745) rotate(0 -34.912581122220104 45.481260709962555)"><path d="M0.76 -0.6 C-19.59 26.69, -41.99 58.79, -70.58 91.05 M-0.93 -0.75 C-22.21 26.99, -41.41 53.96, -69.39 91.71" stroke="#000000" stroke-width="1" fill="none"></path></g><g transform="translate(1224.0340520017107 444.8421539437745) rotate(0 -34.912581122220104 45.481260709962555)"><path d="M-60.18 62.33 C-61.8 70.04, -65.08 82.46, -70.41 91.08 M-61.87 62.18 C-64.58 71.07, -65.82 79.54, -69.22 91.74" stroke="#000000" stroke-width="1" fill="none"></path></g><g transform="translate(1224.0340520017107 444.8421539437745) rotate(0 -34.912581122220104 45.481260709962555)"><path d="M-43.65 74.5 C-50.52 78.37, -58.97 86.99, -70.41 91.08 M-45.35 74.35 C-52.81 79.76, -58.9 84.64, -69.22 91.74" stroke="#000000" stroke-width="1" fill="none"></path></g></g><g stroke-linecap="round" transform="translate(1704.4830489923102 846.6284196677437) rotate(0 17.794743012136905 15.574218750000057)"><path d="M12.37 1.23 C15.72 0.37, 20.94 0.43, 24.46 1.63 C27.98 2.83, 31.85 5.37, 33.5 8.43 C35.15 11.48, 35.14 16.74, 34.36 19.95 C33.57 23.17, 31.82 25.83, 28.76 27.73 C25.71 29.62, 19.82 31.46, 16.02 31.32 C12.22 31.18, 8.5 29.39, 5.96 26.89 C3.43 24.39, 1.27 19.66, 0.8 16.33 C0.32 13, 0.94 9.7, 3.12 6.91 C5.3 4.12, 12.16 0.52, 13.87 -0.43 C15.58 -1.37, 13.27 0.93, 13.37 1.23 M11.92 1.96 C15.45 0.74, 21.88 -0.65, 25.37 0.73 C28.86 2.11, 31.44 6.91, 32.86 10.23 C34.28 13.56, 34.62 17.55, 33.89 20.7 C33.17 23.85, 31.6 27.53, 28.5 29.12 C25.4 30.71, 19.07 30.41, 15.27 30.24 C11.48 30.07, 8.52 30.41, 5.74 28.1 C2.97 25.79, -0.8 19.72, -1.38 16.36 C-1.96 13, -0.2 10.57, 2.24 7.95 C4.68 5.34, 11.62 1.66, 13.26 0.66 C14.9 -0.35, 11.84 1.51, 12.1 1.92" stroke="#000000" stroke-width="1" fill="none"></path></g><g stroke-linecap="round" transform="translate(1712.0260177423102 851.972169667744) rotate(0 10.470703125 10.470703125000057)"><path d="M2.79 3.75 C2.79 3.75, 2.79 3.75, 2.79 3.75 M2.79 3.75 C2.79 3.75, 2.79 3.75, 2.79 3.75 M0.36 13.13 C4.32 7.88, 9.04 3.1, 12.41 -0.72 M1.33 11.18 C4.62 7.56, 9.48 2.92, 11.67 0.36 M4.48 17.02 C7.85 9.67, 14.06 2.82, 17.06 1.11 M2.17 14.97 C5.27 12.87, 8.13 9.82, 15.16 2.08 M3.44 18.54 C7.54 15.84, 12.56 11.02, 21.02 1.55 M3.96 19.56 C8.16 15.01, 13.28 10.2, 18.66 3.29 M7.06 21.23 C13.78 18.36, 17.28 12.73, 20.28 6.08 M8.69 21.76 C12.92 16.48, 16.76 12.87, 21.03 7.28 M15.04 20.44 C17.63 18.04, 19.7 15.14, 20.56 13.76 M15.05 19.67 C17.09 17.72, 18.39 16.45, 20.82 12.66" stroke="#868e96" stroke-width="0.5" fill="none"></path><path d="M10.14 -0.59 C12.45 -0.88, 15.01 0.27, 16.69 1.54 C18.36 2.81, 19.55 4.7, 20.2 7.01 C20.84 9.32, 21.5 13.32, 20.54 15.4 C19.59 17.47, 16.55 18.5, 14.47 19.47 C12.39 20.43, 10.1 21.55, 8.04 21.18 C5.97 20.8, 3.55 19.15, 2.08 17.23 C0.61 15.31, -0.95 11.97, -0.78 9.66 C-0.61 7.36, 1.45 5.15, 3.12 3.38 C4.79 1.61, 7.88 -0.49, 9.25 -0.95 C10.62 -1.4, 11.28 0.43, 11.34 0.67 M10.42 0.28 C12.33 -0.12, 13.45 -0.38, 15.35 0.59 C17.24 1.56, 20.78 3.75, 21.78 6.12 C22.79 8.49, 22.31 12.7, 21.39 14.79 C20.46 16.87, 18.57 17.55, 16.24 18.61 C13.91 19.67, 9.52 21.67, 7.43 21.14 C5.33 20.62, 4.99 17.44, 3.64 15.45 C2.29 13.46, -0.73 11.17, -0.69 9.2 C-0.64 7.24, 2.28 5.35, 3.91 3.66 C5.54 1.97, 8.08 -0.61, 9.11 -0.95 C10.15 -1.28, 9.93 1.46, 10.11 1.66" stroke="#000000" stroke-width="1" fill="none"></path></g><g stroke-linecap="round" transform="translate(952.1993785676652 124.31578382003795) rotate(0 827.856931077653 409.8790204164392)"><path d="M0.27 -0.33 C525.5 4.04, 1051.77 4.42, 1656.48 -0.32 M1655.68 0.67 C1653.49 286.79, 1653.84 574.52, 1655.05 819.09 M1655.85 820.03 C1229.62 814.9, 804.2 815.09, -0.62 820.3 M-0.22 819.23 C3.79 569.55, 3.89 319.9, -0.08 -0.03" stroke="#000000" stroke-width="1.5" fill="none" stroke-dasharray="1.5 7"></path></g><g transform="translate(2428.32188559989 97.48457889522592) rotate(0 84 10)"><text x="0" y="14" font-family="Virgil, Segoe UI Emoji" font-size="16px" fill="#495057" text-anchor="start" style="white-space: pre;" direction="ltr">Auth0 Session Cookie</text></g><g stroke-linecap="round" transform="translate(2638.860545850792 121.20117369777404) rotate(0 616.7014906412664 504.7255830980296)"><path d="M0.17 -0.09 C287.78 -4.55, 575.44 -5.16, 1234.06 -0.4 M1233.68 -0.45 C1228.91 230.62, 1230.09 462.44, 1233.81 1009.13 M1233.08 1009.09 C900.59 1010.27, 568.17 1009.12, -0.49 1009.87 M-0.06 1009.28 C0.35 690.39, 0.44 371.97, 0.31 -0.19" stroke="#000000" stroke-width="1.5" fill="none" stroke-dasharray="1.5 7"></path></g><g transform="translate(3744.3088467510916 97.93923681815642) rotate(0 61.5 10)"><text x="0" y="14" font-family="Virgil, Segoe UI Emoji" font-size="16px" fill="#495057" text-anchor="start" style="white-space: pre;" direction="ltr">Refresh Tokens</text></g><g transform="translate(2735.3255783137975 163.91656605639224) rotate(0 167 37.5)"><text x="0" y="18" font-family="Virgil, Segoe UI Emoji" font-size="20px" fill="#000000" text-anchor="start" style="white-space: pre;" direction="ltr">Is the Auth0 client configured to</text><text x="0" y="43" font-family="Virgil, Segoe UI Emoji" font-size="20px" fill="#000000" text-anchor="start" style="white-space: pre;" direction="ltr">store tokens in browser memory</text><text x="0" y="68" font-family="Virgil, Segoe UI Emoji" font-size="20px" fill="#000000" text-anchor="start" style="white-space: pre;" direction="ltr">(the default) or local storage?</text></g><g transform="translate(3126.0243800868157 171.13593028952965) rotate(0 69.5 12.5)"><text x="0" y="18" font-family="Virgil, Segoe UI Emoji" font-size="20px" fill="#000000" text-anchor="start" style="white-space: pre;" direction="ltr">Local storage</text></g><g stroke-linecap="round"><g transform="translate(3084.5616471123885 202.13366991385692) rotate(0 125.76485172155208 0.6553281239833098)"><path d="M-0.19 -0.64 C55.97 -0.5, 108.31 1.35, 251.72 -0.92 M0.23 0.32 C82.86 2.91, 165.1 2.9, 251.69 0.13" stroke="#000000" stroke-width="1" fill="none"></path></g><g transform="translate(3084.5616471123885 202.13366991385692) rotate(0 125.76485172155208 0.6553281239833098)"><path d="M223.51 10.25 C231.09 7.47, 234.01 7.26, 252.1 -1.52 M224.02 11.43 C233.22 8.71, 241.84 4.94, 252.07 -0.22" stroke="#000000" stroke-width="1" fill="none"></path></g><g transform="translate(3084.5616471123885 202.13366991385692) rotate(0 125.76485172155208 0.6553281239833098)"><path d="M223.04 -10.27 C230.76 -8.56, 233.78 -4.29, 252.1 -1.52 M223.56 -9.09 C232.75 -5.05, 241.53 -2.07, 252.07 -0.22" stroke="#000000" stroke-width="1" fill="none"></path></g></g><g transform="translate(3351.7334199437655 168.88815952398704) rotate(0 159 25)"><text x="0" y="18" font-family="Virgil, Segoe UI Emoji" font-size="20px" fill="#000000" text-anchor="start" style="white-space: pre;" direction="ltr">The Auth0 client will silently log</text><text x="0" y="43" font-family="Virgil, Segoe UI Emoji" font-size="20px" fill="#000000" text-anchor="start" style="white-space: pre;" direction="ltr">the user in.</text></g><g transform="translate(2699.584284675639 271.29440353468095) rotate(0 76.5 12.5)"><text x="0" y="18" font-family="Virgil, Segoe UI Emoji" font-size="20px" fill="#000000" text-anchor="start" style="white-space: pre;" direction="ltr">Browser memory</text></g><g stroke-linecap="round"><g transform="translate(2878.1881165075915 252.05313452891465) rotate(0 -1.0230047022923827 52.481358703201266)"><path d="M-1.75 -0.13 C-1.85 27.83, -0.89 59.6, -0.86 105.75 M-0.29 -0.79 C-1.48 23.66, -1.55 49.54, -1.7 105.63" stroke="#000000" stroke-width="1" fill="none"></path></g><g transform="translate(2878.1881165075915 252.05313452891465) rotate(0 -1.0230047022923827 52.481358703201266)"><path d="M-13.62 77.28 C-10.6 84.03, -6.1 94.62, 0.07 106.49 M-12.16 76.61 C-9.8 83.15, -6.87 91.08, -0.77 106.37" stroke="#000000" stroke-width="1" fill="none"></path></g><g transform="translate(2878.1881165075915 252.05313452891465) rotate(0 -1.0230047022923827 52.481358703201266)"><path d="M6.91 77.34 C4.25 84.12, 3.08 94.7, 0.07 106.49 M8.36 76.68 C5.92 83.13, 4.04 91.04, -0.77 106.37" stroke="#000000" stroke-width="1" fill="none"></path></g></g><g transform="translate(2737.1029016386237 366.05267944773595) rotate(0 174 25)"><text x="0" y="18" font-family="Virgil, Segoe UI Emoji" font-size="20px" fill="#000000" text-anchor="start" style="white-space: pre;" direction="ltr">Does the browser block access to </text><text x="0" y="43" font-family="Virgil, Segoe UI Emoji" font-size="20px" fill="#000000" text-anchor="start" style="white-space: pre;" direction="ltr">third-party cookies (e.g., Safari)?</text></g><g transform="translate(3125.364320558756 358.5840063506844) rotate(0 16.5 12.5)"><text x="0" y="18" font-family="Virgil, Segoe UI Emoji" font-size="20px" fill="#000000" text-anchor="start" style="white-space: pre;" direction="ltr">Yes</text></g><g stroke-linecap="round"><g transform="translate(3094.4845413021344 393.66727473073934) rotate(0 119.72506925358653 0.45056506943865315)"><path d="M-0.96 1.35 C71.65 1.64, 145.85 1.1, 238.29 -0.43 M0.38 0.51 C48.36 1.81, 97.51 1.68, 240.41 -0.52" stroke="#000000" stroke-width="1" fill="none"></path></g><g transform="translate(3094.4845413021344 393.66727473073934) rotate(0 119.72506925358653 0.45056506943865315)"><path d="M211.21 11.74 C219.05 8.15, 228.82 4.25, 238.62 -1.04 M212.81 10.73 C217.93 8.71, 224.47 6.41, 241.16 -1.15" stroke="#000000" stroke-width="1" fill="none"></path></g><g transform="translate(3094.4845413021344 393.66727473073934) rotate(0 119.72506925358653 0.45056506943865315)"><path d="M210.93 -8.78 C218.9 -6.1, 228.76 -3.74, 238.62 -1.04 M212.53 -9.79 C217.74 -7.66, 224.33 -5.82, 241.16 -1.15" stroke="#000000" stroke-width="1" fill="none"></path></g></g><g transform="translate(3353.3226860128957 370.9653721396054) rotate(0 184 75)"><text x="0" y="18" font-family="Virgil, Segoe UI Emoji" font-size="20px" fill="#000000" text-anchor="start" style="white-space: pre;" direction="ltr">The Auth0 client cannot silently</text><text x="0" y="43" font-family="Virgil, Segoe UI Emoji" font-size="20px" fill="#000000" text-anchor="start" style="white-space: pre;" direction="ltr">get a new Access Token in such</text><text x="0" y="68" font-family="Virgil, Segoe UI Emoji" font-size="20px" fill="#000000" text-anchor="start" style="white-space: pre;" direction="ltr">browsers. This is because the hidden</text><text x="0" y="93" font-family="Virgil, Segoe UI Emoji" font-size="20px" fill="#000000" text-anchor="start" style="white-space: pre;" direction="ltr">iframe cannot access the Auth0 </text><text x="0" y="118" font-family="Virgil, Segoe UI Emoji" font-size="20px" fill="#000000" text-anchor="start" style="white-space: pre;" direction="ltr">Session Cookie. The user will have to</text><text x="0" y="143" font-family="Virgil, Segoe UI Emoji" font-size="20px" fill="#000000" text-anchor="start" style="white-space: pre;" direction="ltr">log in again. </text></g><g transform="translate(2734.8893474863576 567.3396081678857) rotate(0 196.5 50)"><text x="0" y="18" font-family="Virgil, Segoe UI Emoji" font-size="20px" fill="#000000" text-anchor="start" style="white-space: pre;" direction="ltr">Has it been more than the number of </text><text x="0" y="43" font-family="Virgil, Segoe UI Emoji" font-size="20px" fill="#000000" text-anchor="start" style="white-space: pre;" direction="ltr">minutes of the Auth0 Session Cookie</text><text x="0" y="68" font-family="Virgil, Segoe UI Emoji" font-size="20px" fill="#000000" text-anchor="start" style="white-space: pre;" direction="ltr">config's 'Require login after' value since</text><text x="0" y="93" font-family="Virgil, Segoe UI Emoji" font-size="20px" fill="#000000" text-anchor="start" style="white-space: pre;" direction="ltr">the user last logged in?</text></g><g transform="translate(2834.0420400073667 453.6240928846021) rotate(0 12.5 12.5)"><text x="0" y="18" font-family="Virgil, Segoe UI Emoji" font-size="20px" fill="#000000" text-anchor="start" style="white-space: pre;" direction="ltr">No</text></g><g stroke-linecap="round"><g transform="translate(2881.1659176305066 424.3086260298053) rotate(0 -0.1062436840427381 65.52883745485167)"><path d="M-0.9 0.66 C0.77 28.05, -0.84 60.05, -0.18 129.84 M0.1 -0.09 C0.89 36.81, 1.06 72.79, -0.49 131.14" stroke="#000000" stroke-width="1" fill="none"></path></g><g transform="translate(2881.1659176305066 424.3086260298053) rotate(0 -0.1062436840427381 65.52883745485167)"><path d="M-11.07 103.41 C-7.11 107.55, -6.58 116.26, -0.92 129.89 M-10.07 102.66 C-6.61 110.98, -3.81 118.3, -1.23 131.2" stroke="#000000" stroke-width="1" fill="none"></path></g><g transform="translate(2881.1659176305066 424.3086260298053) rotate(0 -0.1062436840427381 65.52883745485167)"><path d="M9.45 103.83 C8.75 107.78, 4.63 116.39, -0.92 129.89 M10.44 103.08 C8.18 111.09, 5.26 118.29, -1.23 131.2" stroke="#000000" stroke-width="1" fill="none"></path></g></g><g stroke-linecap="round"><g transform="translate(3683.1848584701493 196.25938815366283) rotate(0 67.6202114571347 404.56331934248414)"><path d="M-1.07 1.41 C31.94 0.58, 67.97 0.81, 134.5 0.69 M0.42 -0.34 C45.09 1.24, 89.38 -0.45, 136.31 0.12 M136.05 -0.55 C133.99 241.9, 132.64 485.15, 131.84 809.68 M135.5 -0.38 C131.57 175.04, 130.83 350.2, 131.7 809.27" stroke="#000000" stroke-width="1" fill="none"></path></g><g transform="translate(3683.1848584701493 196.25938815366283) rotate(0 67.6202114571347 404.56331934248414)"><path d="M120.34 782.5 C122.37 788.91, 127.55 796.15, 130.43 810.3 M121.83 780.75 C124.79 791.44, 127.33 799.24, 132.24 809.73" stroke="#000000" stroke-width="1" fill="none"></path></g><g transform="translate(3683.1848584701493 196.25938815366283) rotate(0 67.6202114571347 404.56331934248414)"><path d="M140.86 782.48 C137.85 788.94, 137.99 796.18, 130.43 810.3 M142.35 780.73 C138.48 791.36, 134.19 799.17, 132.24 809.73" stroke="#000000" stroke-width="1" fill="none"></path></g></g><g stroke-linecap="round"><g transform="translate(3701.224682207444 386.4818557581244) rotate(0 56.265432285513725 -0.9011171216685057)"><path d="M-0.11 -1.54 C40.89 -0.43, 79.79 1.21, 112.21 -2.24 M0.58 0.44 C24.69 0.16, 50 0.58, 112.64 -1.52" stroke="#000000" stroke-width="1" fill="none"></path></g></g><g stroke-linecap="round" transform="translate(3797.123400256285 1014.7224026745398) rotate(0 17.794743012136678 15.57421875)"><path d="M18.71 -0.16 C22.24 0.03, 27.28 2.23, 30.15 4.65 C33.02 7.08, 35.41 11.19, 35.92 14.38 C36.43 17.58, 35.46 21.32, 33.2 23.84 C30.94 26.36, 26.06 28.43, 22.36 29.5 C18.67 30.57, 14.35 31.3, 11.01 30.24 C7.68 29.19, 4.01 26.22, 2.37 23.18 C0.74 20.14, 0.54 15.23, 1.22 12 C1.9 8.77, 3.17 5.9, 6.47 3.8 C9.77 1.7, 18.51 -0.25, 21.03 -0.61 C23.55 -0.97, 21.94 1.25, 21.61 1.64 M24.13 1.62 C27.64 2.55, 31.82 4.27, 33.69 7.01 C35.55 9.75, 36.1 14.75, 35.32 18.06 C34.55 21.37, 31.87 24.74, 29.06 26.87 C26.25 29, 22.13 30.88, 18.46 30.84 C14.8 30.79, 10.22 28.78, 7.08 26.59 C3.94 24.4, 0.28 20.67, -0.4 17.7 C-1.08 14.74, 1.14 11.51, 3 8.81 C4.86 6.11, 7.61 2.66, 10.75 1.49 C13.9 0.32, 20.03 1.83, 21.88 1.8 C23.72 1.76, 21.86 1.16, 21.84 1.28" stroke="#000000" stroke-width="1" fill="none"></path></g><g stroke-linecap="round" transform="translate(3804.666369006285 1020.0661526745398) rotate(0 10.470703125 10.470703125)"><path d="M1.63 4.06 C1.63 4.06, 1.63 4.06, 1.63 4.06 M1.63 4.06 C1.63 4.06, 1.63 4.06, 1.63 4.06 M1.13 10.21 C2.38 9.66, 5.55 6.44, 9.02 2.57 M1.05 11.86 C2.17 8.77, 4.77 6.65, 9.51 1.68 M3.08 16.31 C7.89 9.54, 11.68 4.53, 15.34 0.4 M3.63 13.85 C5.93 10.2, 10.75 7.09, 15.32 0.65 M3.37 19.73 C6.53 17.51, 9.47 13.5, 17.12 2.62 M3.4 19.89 C9.97 13.9, 13.65 7.77, 17.1 3.97 M6.69 20.91 C14.15 15.52, 15.95 8.7, 19.54 4.37 M7.47 21.4 C12.52 15.8, 15.56 11.65, 20.61 7.05 M10.05 21.95 C12.95 20.14, 15.18 18.66, 21.94 11.76 M10.73 22.81 C14.15 21.2, 15.58 18.03, 21.14 11.46" stroke="#868e96" stroke-width="0.5" fill="none"></path><path d="M14.67 1.25 C16.9 2.08, 19.35 4.42, 20.47 6.47 C21.59 8.52, 22.07 11.58, 21.39 13.55 C20.71 15.52, 18.5 17.05, 16.38 18.29 C14.26 19.53, 10.83 20.99, 8.67 20.99 C6.51 20.99, 4.77 19.76, 3.4 18.3 C2.04 16.84, 0.79 14.61, 0.5 12.22 C0.22 9.84, 0.4 5.82, 1.7 3.97 C3.01 2.13, 6.04 1.57, 8.32 1.16 C10.61 0.75, 13.76 1.42, 15.4 1.53 C17.03 1.63, 18.1 1.51, 18.14 1.78 M14.36 1.26 C16.57 1.59, 17.79 3, 18.93 4.63 C20.07 6.26, 21.47 8.79, 21.21 11.03 C20.95 13.28, 19.12 16.43, 17.38 18.12 C15.64 19.8, 13.17 21.15, 10.77 21.14 C8.36 21.14, 4.87 19.29, 2.94 18.07 C1 16.85, -0.64 15.91, -0.85 13.8 C-1.07 11.69, 0.39 7.8, 1.65 5.41 C2.9 3.02, 4.54 0.51, 6.69 -0.54 C8.83 -1.59, 13.37 -0.91, 14.53 -0.87 C15.69 -0.83, 13.83 -0.83, 13.65 -0.3" stroke="#000000" stroke-width="1" fill="none"></path></g><g transform="translate(1305.7630798476064 277.585360599092) rotate(0 76.5 12.5)"><text x="0" y="18" font-family="Virgil, Segoe UI Emoji" font-size="20px" fill="#000000" text-anchor="start" style="white-space: pre;" direction="ltr">Browser memory</text></g><g transform="translate(1958.8087580595939 287.28557723698185) rotate(0 69.5 12.5)"><text x="0" y="18" font-family="Virgil, Segoe UI Emoji" font-size="20px" fill="#000000" text-anchor="start" style="white-space: pre;" direction="ltr">Local storage</text></g><g stroke-linecap="round"><g transform="translate(1583.891968140711 259.39748946030704) rotate(0 -117.69378525146305 54.05931776933278)"><path d="M-0.07 0.29 C-94.82 45.28, -189.36 86.59, -234 106.58 M-0.23 0.48 C-70.45 33.13, -141.07 65.09, -235.32 107.83" stroke="#495057" stroke-width="1" fill="none"></path></g><g transform="translate(1583.891968140711 259.39748946030704) rotate(0 -117.69378525146305 54.05931776933278)"><path d="M-213.97 87.2 C-223.43 96.99, -233.01 103.47, -233.55 106.6 M-214.17 87.44 C-220.35 93.82, -226.64 99.68, -235.2 108.16" stroke="#495057" stroke-width="1" fill="none"></path></g><g transform="translate(1583.891968140711 259.39748946030704) rotate(0 -117.69378525146305 54.05931776933278)"><path d="M-205.49 105.89 C-218.25 108.29, -231.2 107.33, -233.55 106.6 M-205.69 106.13 C-214.5 106.91, -223.33 107.15, -235.2 108.16" stroke="#495057" stroke-width="1" fill="none"></path></g></g><g stroke-linecap="round"><g transform="translate(1811.8204464488454 259.30376756042403) rotate(0 125.41815049255365 56.40757086935568)"><path d="M1.38 1.03 C83.34 38.58, 167.68 75.89, 250.47 113.19 M-0.76 -0.37 C63.97 29.93, 129.26 57.27, 251.6 112.65" stroke="#495057" stroke-width="1" fill="none"></path></g><g transform="translate(1811.8204464488454 259.30376756042403) rotate(0 125.41815049255365 56.40757086935568)"><path d="M223.45 111.82 C230.31 110.51, 240.04 110.66, 250.03 113.79 M220.69 110.01 C228.54 112.05, 237.27 110.77, 251.48 113.1" stroke="#495057" stroke-width="1" fill="none"></path></g><g transform="translate(1811.8204464488454 259.30376756042403) rotate(0 125.41815049255365 56.40757086935568)"><path d="M231.84 93.09 C235.85 98.01, 242.76 104.45, 250.03 113.79 M229.08 91.28 C234.81 98.1, 241.39 101.62, 251.48 113.1" stroke="#495057" stroke-width="1" fill="none"></path></g></g><g transform="translate(1177.8284264209617 380.3386435617206) rotate(0 169 25)"><text x="0" y="18" font-family="Virgil, Segoe UI Emoji" font-size="20px" fill="#000000" text-anchor="start" style="white-space: pre;" direction="ltr">Does the browser block access to</text><text x="0" y="43" font-family="Virgil, Segoe UI Emoji" font-size="20px" fill="#000000" text-anchor="start" style="white-space: pre;" direction="ltr">third-party cookies (e.g., Safari)?</text></g><g transform="translate(1008.0725052147097 546.0602629866472) rotate(0 140.5 25)"><text x="0" y="18" font-family="Virgil, Segoe UI Emoji" font-size="20px" fill="#000000" text-anchor="start" style="white-space: pre;" direction="ltr">The Auth0 client will silently</text><text x="0" y="43" font-family="Virgil, Segoe UI Emoji" font-size="20px" fill="#000000" text-anchor="start" style="white-space: pre;" direction="ltr">log the user in.</text></g><g transform="translate(1359.7213336620603 544.4030893932621) rotate(0 170 37.5)"><text x="0" y="18" font-family="Virgil, Segoe UI Emoji" font-size="20px" fill="#000000" text-anchor="start" style="white-space: pre;" direction="ltr">The Auth0 client cannot silently</text><text x="0" y="43" font-family="Virgil, Segoe UI Emoji" font-size="20px" fill="#000000" text-anchor="start" style="white-space: pre;" direction="ltr">log the user in. The user will have</text><text x="0" y="68" font-family="Virgil, Segoe UI Emoji" font-size="20px" fill="#000000" text-anchor="start" style="white-space: pre;" direction="ltr">to log in again.</text></g><g transform="translate(2240.7567353663735 460.04585312329584) rotate(0 16.5 12.5)"><text x="0" y="18" font-family="Virgil, Segoe UI Emoji" font-size="20px" fill="#000000" text-anchor="start" style="white-space: pre;" direction="ltr">Yes</text></g><g stroke-linecap="round"><g transform="translate(2176.4459076522708 449.2719137859385) rotate(0 40.22858187455358 44.83377314190835)"><path d="M1.59 -0.05 C32.57 33.15, 62.7 71.69, 79.28 89.3 M0.66 0.33 C29.12 35.16, 60.58 68.47, 79.8 89.72" stroke="#000000" stroke-width="1" fill="none"></path></g><g transform="translate(2176.4459076522708 449.2719137859385) rotate(0 40.22858187455358 44.83377314190835)"><path d="M54.8 75.78 C64.26 79.28, 73.53 87.72, 79.54 88.76 M53.87 76.16 C62.34 82.02, 73.97 86.73, 80.07 89.18" stroke="#000000" stroke-width="1" fill="none"></path></g><g transform="translate(2176.4459076522708 449.2719137859385) rotate(0 40.22858187455358 44.83377314190835)"><path d="M69.95 61.93 C73.56 71, 76.85 84.9, 79.54 88.76 M69.02 62.32 C71.84 73.26, 77.81 83.15, 80.07 89.18" stroke="#000000" stroke-width="1" fill="none"></path></g></g><g transform="translate(1894.638860447471 460.35970461310956) rotate(0 12.5 12.5)"><text x="0" y="18" font-family="Virgil, Segoe UI Emoji" font-size="20px" fill="#000000" text-anchor="start" style="white-space: pre;" direction="ltr">No</text></g><g stroke-linecap="round"><g transform="translate(1960.6591759213038 448.7627622823883) rotate(0 -31.74252363450387 43.57174652018193)"><path d="M0.45 -1.83 C-24 34.25, -47.44 65.3, -62.49 88.97 M-0.86 0.81 C-13.32 20.88, -28.58 40.41, -63.94 88.93" stroke="#000000" stroke-width="1" fill="none"></path></g><g transform="translate(1960.6591759213038 448.7627622823883) rotate(0 -31.74252363450387 43.57174652018193)"><path d="M-55.09 58.3 C-59.22 72.04, -61.86 80.73, -62.45 89.37 M-56.41 60.94 C-56.47 67.09, -58.95 72.87, -63.89 89.32" stroke="#000000" stroke-width="1" fill="none"></path></g><g transform="translate(1960.6591759213038 448.7627622823883) rotate(0 -31.74252363450387 43.57174652018193)"><path d="M-38.54 70.43 C-48.96 79.63, -57.79 83.78, -62.45 89.37 M-39.86 73.07 C-43.81 76.49, -50.09 79.48, -63.89 89.32" stroke="#000000" stroke-width="1" fill="none"></path></g></g><g transform="translate(1916.3630284387427 387.0343012123941) rotate(0 169 25)"><text x="0" y="18" font-family="Virgil, Segoe UI Emoji" font-size="20px" fill="#000000" text-anchor="start" style="white-space: pre;" direction="ltr">Does the browser block access to</text><text x="0" y="43" font-family="Virgil, Segoe UI Emoji" font-size="20px" fill="#000000" text-anchor="start" style="white-space: pre;" direction="ltr">third-party cookies (e.g., Safari)?</text></g><g transform="translate(1780.1937654117164 548.0846883686924) rotate(0 140.5 25)"><text x="0" y="18" font-family="Virgil, Segoe UI Emoji" font-size="20px" fill="#000000" text-anchor="start" style="white-space: pre;" direction="ltr">The Auth0 client will silently</text><text x="0" y="43" font-family="Virgil, Segoe UI Emoji" font-size="20px" fill="#000000" text-anchor="start" style="white-space: pre;" direction="ltr">log the user in.</text></g><g transform="translate(2147.6882069283215 550.6696764263477) rotate(0 181 62.5)"><text x="0" y="18" font-family="Virgil, Segoe UI Emoji" font-size="20px" fill="#000000" text-anchor="start" style="white-space: pre;" direction="ltr">The Auth0 client will silently log</text><text x="0" y="43" font-family="Virgil, Segoe UI Emoji" font-size="20px" fill="#000000" text-anchor="start" style="white-space: pre;" direction="ltr">the user in, but the user will have</text><text x="0" y="68" font-family="Virgil, Segoe UI Emoji" font-size="20px" fill="#000000" text-anchor="start" style="white-space: pre;" direction="ltr">to log in again when the Access</text><text x="0" y="93" font-family="Virgil, Segoe UI Emoji" font-size="20px" fill="#000000" text-anchor="start" style="white-space: pre;" direction="ltr">Token or ID Token expire (whichever</text><text x="0" y="118" font-family="Virgil, Segoe UI Emoji" font-size="20px" fill="#000000" text-anchor="start" style="white-space: pre;" direction="ltr">is soonest). </text></g><g stroke-linecap="round"><g transform="translate(1141.304774543955 606.3389224817205) rotate(0 276.15244393716216 128.25782445429428)"><path d="M0.65 -0.27 C2.95 86.19, 3.1 173.77, 2.47 254.79 M0.59 -0.34 C0.02 72.04, 1.39 144.69, 2.07 256.66 M1.67 256.86 C180.34 255.02, 357.92 255.42, 551.85 254.57 M2.09 256.73 C203.16 254.17, 403.85 253.89, 551.28 255.6" stroke="#000000" stroke-width="1" fill="none"></path></g><g transform="translate(1141.304774543955 606.3389224817205) rotate(0 276.15244393716216 128.25782445429428)"><path d="M523.82 265.34 C532.76 261.36, 541.49 258.81, 551.32 253.61 M523.75 265.24 C530.01 262.09, 538.85 259.34, 550.83 255.93" stroke="#000000" stroke-width="1" fill="none"></path></g><g transform="translate(1141.304774543955 606.3389224817205) rotate(0 276.15244393716216 128.25782445429428)"><path d="M523.96 244.81 C533.04 247.8, 541.72 252.2, 551.32 253.61 M523.89 244.72 C530.13 247.38, 538.93 250.43, 550.83 255.93" stroke="#000000" stroke-width="1" fill="none"></path></g></g><g stroke-linecap="round"><g transform="translate(1474.3383067293253 635.703697749606) rotate(0 0.8442706444608348 112.96687337625718)"><path d="M1.52 -0.19 C2.84 89.86, 0.78 177.76, 0.43 226.28 M-0.26 -0.34 C2.21 70.37, 1.52 140.92, -0.06 225.04" stroke="#000000" stroke-width="1" fill="none"></path></g></g><g stroke-linecap="round"><g transform="translate(2262.561441193499 686.1990204252539) rotate(0 -256.8299553034876 87.48530352191887)"><path d="M0.93 1.3 C0.6 51.8, 0.46 101.3, -0.82 172.86 M0.99 0.89 C-0.26 65.82, -1.09 129.91, -1.37 170.23 M-2.58 171.21 C-111.64 171.07, -220.86 171.67, -514.65 173.66 M-2.1 170.97 C-202.5 173.29, -402.21 174.56, -513.72 173.91" stroke="#000000" stroke-width="1" fill="none"></path></g><g transform="translate(2262.561441193499 686.1990204252539) rotate(0 -256.8299553034876 87.48530352191887)"><path d="M-484.59 164.97 C-492.98 168.03, -500.9 170.18, -512.74 175.76 M-484.53 164.56 C-495.79 168.16, -506.69 170.91, -513.29 173.13" stroke="#000000" stroke-width="1" fill="none"></path></g><g transform="translate(2262.561441193499 686.1990204252539) rotate(0 -256.8299553034876 87.48530352191887)"><path d="M-484.6 185.49 C-493.03 182.51, -500.95 178.61, -512.74 175.76 M-484.54 185.08 C-495.79 180.85, -506.69 175.77, -513.29 173.13" stroke="#000000" stroke-width="1" fill="none"></path></g></g><g stroke-linecap="round"><g transform="translate(1922.427620559547 608.153719270364) rotate(0 0.10146115511497555 125.3147202855028)"><path d="M0.79 -0.87 C0.96 51.43, 0.51 105.73, -0.62 250.67 M0.55 -0.07 C0.67 79.34, 0.19 159.7, 0.32 251.5" stroke="#000000" stroke-width="1" fill="none"></path></g></g><g transform="translate(3162.488081437575 571.7976446959567) rotate(0 16.5 12.5)"><text x="0" y="18" font-family="Virgil, Segoe UI Emoji" font-size="20px" fill="#000000" text-anchor="start" style="white-space: pre;" direction="ltr">Yes</text></g><g stroke-linecap="round"><g transform="translate(3135.2464159309575 606.7737683045125) rotate(0 105.72705538778473 -1.3013819688582657)"><path d="M1.61 1.41 C78.68 1.34, 154.4 -1.42, 211.04 -4.01 M-0.6 -0.86 C50 -0.73, 99.68 -1.72, 212.05 -2.37" stroke="#000000" stroke-width="1" fill="none"></path></g><g transform="translate(3135.2464159309575 606.7737683045125) rotate(0 105.72705538778473 -1.3013819688582657)"><path d="M185.77 9.7 C195.51 5.54, 203.68 -0.27, 211.72 -3.76 M183.26 7.12 C190.81 5.81, 197.31 2.96, 212.87 -1.89" stroke="#000000" stroke-width="1" fill="none"></path></g><g transform="translate(3135.2464159309575 606.7737683045125) rotate(0 105.72705538778473 -1.3013819688582657)"><path d="M185.62 -10.82 C195.3 -7.44, 203.53 -5.72, 211.72 -3.76 M183.11 -13.4 C190.7 -9.88, 197.25 -7.89, 212.87 -1.89" stroke="#000000" stroke-width="1" fill="none"></path></g></g><g transform="translate(3361.8000387898605 585.5640437873296) rotate(0 170 12.5)"><text x="0" y="18" font-family="Virgil, Segoe UI Emoji" font-size="20px" fill="#000000" text-anchor="start" style="white-space: pre;" direction="ltr">The user will have to log in again.</text></g><g transform="translate(2748.3440864694903 791.3693082420763) rotate(0 183.5 50.00000000000006)"><text x="0" y="18" font-family="Virgil, Segoe UI Emoji" font-size="20px" fill="#000000" text-anchor="start" style="white-space: pre;" direction="ltr">Has the user been inactive for more </text><text x="0" y="43" font-family="Virgil, Segoe UI Emoji" font-size="20px" fill="#000000" text-anchor="start" style="white-space: pre;" direction="ltr">than the number of minutes of the </text><text x="0" y="68" font-family="Virgil, Segoe UI Emoji" font-size="20px" fill="#000000" text-anchor="start" style="white-space: pre;" direction="ltr">Auth0 Session Cookie config's </text><text x="0" y="93" font-family="Virgil, Segoe UI Emoji" font-size="20px" fill="#000000" text-anchor="start" style="white-space: pre;" direction="ltr">'Inactivity timeout' value?</text></g><g transform="translate(2839.0575479146723 715.8156465566047) rotate(0 12.5 12.5)"><text x="0" y="18" font-family="Virgil, Segoe UI Emoji" font-size="20px" fill="#000000" text-anchor="start" style="white-space: pre;" direction="ltr">No</text></g><g stroke-linecap="round"><g transform="translate(2885.727872248125 686.500179701808) rotate(0 -0.33214470477423674 45.95901994845292)"><path d="M0.6 -0.41 C0.26 18.6, -2.13 40, -0.56 91.05 M-0.26 -0.82 C-0.77 23.22, -0.8 47.88, -1.27 92.74" stroke="#000000" stroke-width="1" fill="none"></path></g><g transform="translate(2885.727872248125 686.500179701808) rotate(0 -0.33214470477423674 45.95901994845292)"><path d="M-10.66 64.04 C-8.64 69.49, -8.86 77.24, -1.56 90.86 M-11.53 63.63 C-8.85 71.18, -6.26 79.31, -2.27 92.55" stroke="#000000" stroke-width="1" fill="none"></path></g><g transform="translate(2885.727872248125 686.500179701808) rotate(0 -0.33214470477423674 45.95901994845292)"><path d="M9.86 64.23 C7.54 69.46, 2.99 77.16, -1.56 90.86 M8.99 63.82 C6.43 71.28, 3.78 79.37, -2.27 92.55" stroke="#000000" stroke-width="1" fill="none"></path></g></g><g transform="translate(3155.275616523398 787.6441311900321) rotate(0 16.5 12.5)"><text x="0" y="18" font-family="Virgil, Segoe UI Emoji" font-size="20px" fill="#000000" text-anchor="start" style="white-space: pre;" direction="ltr">Yes</text></g><g stroke-linecap="round"><g transform="translate(3128.033951016781 821.9039393906128) rotate(0 112.97856014777449 -1.8133281793467972)"><path d="M0.86 -1.68 C59.76 -4.11, 120.6 -2.73, 225.81 -3.62 M0.14 0 C68.57 -2.01, 136.46 -2.58, 224.7 -3.41" stroke="#000000" stroke-width="1" fill="none"></path></g><g transform="translate(3128.033951016781 821.9039393906128) rotate(0 112.97856014777449 -1.8133281793467972)"><path d="M197.6 5.17 C203.4 2.54, 211.45 2.42, 225.78 -3.52 M196.77 7.12 C205.41 3.66, 213.47 1.05, 224.47 -3.27" stroke="#000000" stroke-width="1" fill="none"></path></g><g transform="translate(3128.033951016781 821.9039393906128) rotate(0 112.97856014777449 -1.8133281793467972)"><path d="M197.4 -15.35 C203.21 -12.47, 211.31 -7.07, 225.78 -3.52 M196.57 -13.4 C205.37 -10.63, 213.49 -7, 224.47 -3.27" stroke="#000000" stroke-width="1" fill="none"></path></g></g><g transform="translate(3368.1346484951346 799.3955094339209) rotate(0 170 12.5)"><text x="0" y="18" font-family="Virgil, Segoe UI Emoji" font-size="20px" fill="#000000" text-anchor="start" style="white-space: pre;" direction="ltr">The user will have to log in again.</text></g><g transform="translate(2839.8277665277287 935.4521676782906) rotate(0 12.5 12.5)"><text x="0" y="18" font-family="Virgil, Segoe UI Emoji" font-size="20px" fill="#000000" text-anchor="start" style="white-space: pre;" direction="ltr">No</text></g><g stroke-linecap="round"><g transform="translate(2886.841150570259 906.2687635006016) rotate(0 -0.4546902150336791 45.754286086097295)"><path d="M0.65 -1.14 C-0.06 22.58, 0.41 46.38, -1.58 92.12 M0.67 0.91 C-0.19 31.75, 0.03 63.38, -1.15 92.65" stroke="#000000" stroke-width="1" fill="none"></path></g><g transform="translate(2886.841150570259 906.2687635006016) rotate(0 -0.4546902150336791 45.754286086097295)"><path d="M-9.97 63.04 C-8 70.23, -5.03 77.42, -2.56 92.1 M-9.95 65.09 C-7.56 74.13, -4.06 83.88, -2.12 92.63" stroke="#000000" stroke-width="1" fill="none"></path></g><g transform="translate(2886.841150570259 906.2687635006016) rotate(0 -0.4546902150336791 45.754286086097295)"><path d="M10.54 63.61 C7.21 70.48, 4.87 77.53, -2.56 92.1 M10.57 65.67 C5.96 74.32, 2.47 83.88, -2.12 92.63" stroke="#000000" stroke-width="1" fill="none"></path></g></g><g transform="translate(2749.3476832844735 1010.6941729417599) rotate(0 184 37.5)"><text x="0" y="18" font-family="Virgil, Segoe UI Emoji" font-size="20px" fill="#000000" text-anchor="start" style="white-space: pre;" direction="ltr">The Auth0 client will silently log the</text><text x="0" y="43" font-family="Virgil, Segoe UI Emoji" font-size="20px" fill="#000000" text-anchor="start" style="white-space: pre;" direction="ltr">user in using a hidden iframe and the</text><text x="0" y="68" font-family="Virgil, Segoe UI Emoji" font-size="20px" fill="#000000" text-anchor="start" style="white-space: pre;" direction="ltr">Auth0 Session Cookie.</text></g><g stroke-linecap="round"><g transform="translate(3132.888340629242 1033.7414109101342) rotate(0 326.1113987033366 -2.639547783885405)"><path d="M0.02 -0.6 C193.18 -2.06, 386.9 -3.45, 652.27 -4.93 M-0.35 -0.08 C254.73 0.14, 510.13 -1.82, 652.57 -5.2" stroke="#000000" stroke-width="1" fill="none"></path></g><g transform="translate(3132.888340629242 1033.7414109101342) rotate(0 326.1113987033366 -2.639547783885405)"><path d="M624.6 4.03 C632.04 2.55, 640.89 -0.02, 651.96 -3.74 M623.69 5.34 C634.85 1.17, 646.78 -2.55, 652.72 -4.41" stroke="#000000" stroke-width="1" fill="none"></path></g><g transform="translate(3132.888340629242 1033.7414109101342) rotate(0 326.1113987033366 -2.639547783885405)"><path d="M624.25 -16.49 C631.94 -11.88, 640.9 -8.37, 651.96 -3.74 M623.34 -15.18 C634.43 -11.33, 646.5 -7.03, 652.72 -4.41" stroke="#000000" stroke-width="1" fill="none"></path></g></g><g stroke-linecap="round"><g transform="translate(3717.719609705021 600.7031106832102) rotate(0 48.974055145998136 -0.5037389017169858)"><path d="M1.73 -0.41 C31.68 -2.62, 60.98 -0.2, 97.91 0.32 M0.04 -0.87 C22.77 1.03, 45.44 -0.36, 97.84 -0.24" stroke="#000000" stroke-width="1" fill="none"></path></g></g><g stroke-linecap="round"><g transform="translate(3719.3889588004067 810.431518029465) rotate(0 47.77534563014342 0.367274570582822)"><path d="M0.47 -0.51 C25.97 1.88, 56.84 2.61, 96.39 -0.79 M-0.83 0.38 C30.54 -0.19, 63.54 -0.84, 96.28 0.87" stroke="#000000" stroke-width="1" fill="none"></path></g></g></svg>