<svg version="1.1" xmlns="http://www.w3.org/2000/svg" viewBox="0 0 1286.085087904903 2485.4156981972164" width="2572.170175809806" height="4970.831396394433">
  <!-- svg-source:excalidraw -->
  
  <defs>
    <style>
      @font-face {
        font-family: "Virgil";
        src: url("https://excalidraw.com/Virgil.woff2");
      }
      @font-face {
        font-family: "Cascadia";
        src: url("https://excalidraw.com/Cascadia.woff2");
      }
    </style>
  </defs>
  <rect x="0" y="0" width="1286.085087904903" height="2485.4156981972164" fill="#ffffff"></rect><g stroke-linecap="round" transform="translate(222.3414566215506 10) rotate(0 16.3515625 14.302734375)"><path d="M18.91 0.22 C22.14 0.73, 26.54 3.16, 28.89 5.45 C31.24 7.74, 33.14 10.75, 33.02 13.97 C32.9 17.19, 30.49 22.24, 28.17 24.78 C25.85 27.31, 22.45 28.77, 19.1 29.17 C15.74 29.57, 11.03 28.88, 8.03 27.19 C5.02 25.49, 2.35 22.05, 1.08 19.01 C-0.18 15.97, -0.95 11.76, 0.44 8.96 C1.83 6.16, 5.9 3.41, 9.41 2.21 C12.91 1, 19.11 1.68, 21.49 1.73 C23.86 1.78, 23.73 2.37, 23.67 2.53 M24.94 3.1 C27.84 3.93, 28.59 5.2, 29.99 7.63 C31.38 10.05, 34.08 14.72, 33.3 17.67 C32.51 20.61, 28.4 23.27, 25.27 25.28 C22.14 27.29, 18.22 29.77, 14.51 29.73 C10.79 29.69, 5.51 27.28, 2.97 25.02 C0.43 22.77, -0.59 19.67, -0.74 16.21 C-0.89 12.75, -0.04 6.97, 2.08 4.24 C4.21 1.51, 8.38 0.33, 12 -0.18 C15.62 -0.68, 21.71 0.87, 23.8 1.23 C25.89 1.6, 24.62 1.85, 24.54 2.03" stroke="#000000" stroke-width="1" fill="none"></path></g><g transform="translate(77.34514110304008 160.82225201454264) rotate(0 189 50)"><text x="0" y="18" font-family="Virgil, Segoe UI Emoji" font-size="20px" fill="#000000" text-anchor="start" style="white-space: pre;" direction="ltr">Scenario: The SPA wants to call</text><text x="0" y="43" font-family="Virgil, Segoe UI Emoji" font-size="20px" fill="#000000" text-anchor="start" style="white-space: pre;" direction="ltr">the backend API. To authenticate</text><text x="0" y="68" font-family="Virgil, Segoe UI Emoji" font-size="20px" fill="#000000" text-anchor="start" style="white-space: pre;" direction="ltr">with the API, it has to use the</text><text x="0" y="93" font-family="Virgil, Segoe UI Emoji" font-size="20px" fill="#000000" text-anchor="start" style="white-space: pre;" direction="ltr">Auth0 client to get an Access Token.</text></g><g transform="translate(140.98252665966106 377.0179811952345) rotate(0 120.99999999999989 50)"><text x="0" y="18" font-family="Virgil, Segoe UI Emoji" font-size="20px" fill="#000000" text-anchor="start" style="white-space: pre;" direction="ltr">Are you using the</text><text x="0" y="43" font-family="Virgil, Segoe UI Emoji" font-size="20px" fill="#000000" text-anchor="start" style="white-space: pre;" direction="ltr">'Authorization Code Flow</text><text x="0" y="68" font-family="Virgil, Segoe UI Emoji" font-size="20px" fill="#000000" text-anchor="start" style="white-space: pre;" direction="ltr">with Proof Key for Code</text><text x="0" y="93" font-family="Virgil, Segoe UI Emoji" font-size="20px" fill="#000000" text-anchor="start" style="white-space: pre;" direction="ltr">Exchange (PKCE)'?</text></g><g transform="translate(139.7839510759668 615.2316180745444) rotate(0 131 37.5)"><text x="0" y="18" font-family="Virgil, Segoe UI Emoji" font-size="20px" fill="#000000" text-anchor="start" style="white-space: pre;" direction="ltr">Has either of the current</text><text x="0" y="43" font-family="Virgil, Segoe UI Emoji" font-size="20px" fill="#000000" text-anchor="start" style="white-space: pre;" direction="ltr">Access Token or the </text><text x="0" y="68" font-family="Virgil, Segoe UI Emoji" font-size="20px" fill="#000000" text-anchor="start" style="white-space: pre;" direction="ltr">current ID Token expired?</text></g><g transform="translate(186.1326234342646 513.8485536127796) rotate(0 16.5 12.5)"><text x="0" y="18" font-family="Virgil, Segoe UI Emoji" font-size="20px" fill="#000000" text-anchor="start" style="white-space: pre;" direction="ltr">Yes</text></g><g transform="translate(434.9285964692381 390.6148978086948) rotate(0 12.5 12.5)"><text x="0" y="18" font-family="Virgil, Segoe UI Emoji" font-size="20px" fill="#000000" text-anchor="start" style="white-space: pre;" direction="ltr">No</text></g><g transform="translate(448.8587110433864 625.5428793437043) rotate(0 12.5 12.5)"><text x="0" y="18" font-family="Virgil, Segoe UI Emoji" font-size="20px" fill="#000000" text-anchor="start" style="white-space: pre;" direction="ltr">No</text></g><g transform="translate(185.89178782234148 732.7625649839258) rotate(0 16.5 12.5)"><text x="0" y="18" font-family="Virgil, Segoe UI Emoji" font-size="20px" fill="#000000" text-anchor="start" style="white-space: pre;" direction="ltr">Yes</text></g><g transform="translate(122.61162042223168 838.0322991043606) rotate(0 138.5 12.5)"><text x="0" y="18" font-family="Virgil, Segoe UI Emoji" font-size="20px" fill="#000000" text-anchor="start" style="white-space: pre;" direction="ltr">Are refresh tokens enabled?</text></g><g transform="translate(205.36608622622475 878.6395966321024) rotate(0 12.5 12.5)"><text x="0" y="18" font-family="Virgil, Segoe UI Emoji" font-size="20px" fill="#000000" text-anchor="start" style="white-space: pre;" direction="ltr">No</text></g><g transform="translate(29.366590257098096 821.6224782673933) rotate(0 16.5 12.5)"><text x="0" y="18" font-family="Virgil, Segoe UI Emoji" font-size="20px" fill="#000000" text-anchor="start" style="white-space: pre;" direction="ltr">Yes</text></g><g stroke-linecap="round"><g transform="translate(241.27056541700517 272.448013210715) rotate(0 -0.5423205918020813 43.12334001278131)"><path d="M0.25 -1.17 C0.05 13.37, -1.63 73.01, -1.68 87.42 M-1.07 0.83 C-0.86 15.04, 0.48 71.62, 0.59 85.81" stroke="#000000" stroke-width="1" fill="none"></path></g><g transform="translate(241.27056541700517 272.448013210715) rotate(0 -0.5423205918020813 43.12334001278131)"><path d="M-12.09 56.4 C-5.64 66.46, -6.39 71.27, 1.36 86.7 M-10.34 58.52 C-7.75 63.95, -5.06 68.81, 0.31 86.19" stroke="#000000" stroke-width="1" fill="none"></path></g><g transform="translate(241.27056541700517 272.448013210715) rotate(0 -0.5423205918020813 43.12334001278131)"><path d="M8.43 56.06 C9.5 66.25, 3.39 71.15, 1.36 86.7 M10.18 58.17 C8.4 63.6, 6.74 68.54, 0.31 86.19" stroke="#000000" stroke-width="1" fill="none"></path></g></g><g transform="translate(594.4141252608697 377.13684884922594) rotate(0 131 50)"><text x="0" y="18" font-family="Virgil, Segoe UI Emoji" font-size="20px" fill="#a61e4d" text-anchor="start" style="white-space: pre;" direction="ltr">This flow chart does not</text><text x="0" y="43" font-family="Virgil, Segoe UI Emoji" font-size="20px" fill="#a61e4d" text-anchor="start" style="white-space: pre;" direction="ltr">cover alternative flows to</text><text x="0" y="68" font-family="Virgil, Segoe UI Emoji" font-size="20px" fill="#a61e4d" text-anchor="start" style="white-space: pre;" direction="ltr">Authorization Code Flow </text><text x="0" y="93" font-family="Virgil, Segoe UI Emoji" font-size="20px" fill="#a61e4d" text-anchor="start" style="white-space: pre;" direction="ltr">with PKCE.</text></g><g stroke-linecap="round"><g transform="translate(393.79502665966174 429.1213515090485) rotate(0 98.70200933277238 -1.521855320864418)"><path d="M0.79 -0.51 C33.23 -0.54, 162.87 -0.53, 195.52 -0.63 M-0.26 -1.83 C32.47 -2.17, 164.96 -2.77, 197.66 -2.43" stroke="#000000" stroke-width="1" fill="none"></path></g><g transform="translate(393.79502665966174 429.1213515090485) rotate(0 98.70200933277238 -1.521855320864418)"><path d="M168.6 5.98 C180.95 3.94, 190.53 0.16, 196.68 -1.35 M169.44 7.48 C178.45 5.73, 185.74 2.58, 198.28 -2.55" stroke="#000000" stroke-width="1" fill="none"></path></g><g transform="translate(393.79502665966174 429.1213515090485) rotate(0 98.70200933277238 -1.521855320864418)"><path d="M168.63 -14.54 C180.89 -9, 190.46 -5.19, 196.68 -1.35 M169.47 -13.04 C178.53 -8.51, 185.82 -5.39, 198.28 -2.55" stroke="#000000" stroke-width="1" fill="none"></path></g></g><g stroke-linecap="round"><g transform="translate(243.78484489064476 490.96324864951043) rotate(0 0.3826270896539654 57.90894682418273)"><path d="M-1.15 1.17 C-0.78 20.5, 1.62 96.29, 1.91 115.08 M0.45 0.74 C0.78 19.84, 1.68 94.46, 1.57 113.52" stroke="#000000" stroke-width="1" fill="none"></path></g><g transform="translate(243.78484489064476 490.96324864951043) rotate(0 0.3826270896539654 57.90894682418273)"><path d="M-6.86 87.3 C-4.33 93.07, -3.46 101.35, 1.4 114.12 M-9.26 85.5 C-5.44 95.16, -0.68 105.91, 1.28 114.04" stroke="#000000" stroke-width="1" fill="none"></path></g><g transform="translate(243.78484489064476 490.96324864951043) rotate(0 0.3826270896539654 57.90894682418273)"><path d="M13.66 87.21 C10.49 92.81, 5.66 101.11, 1.4 114.12 M11.26 85.41 C7.72 95.05, 5.13 105.83, 1.28 114.04" stroke="#000000" stroke-width="1" fill="none"></path></g></g><g transform="translate(582.9324320153328 631.0355666161211) rotate(0 148 25)"><text x="0" y="18" font-family="Virgil, Segoe UI Emoji" font-size="20px" fill="#000000" text-anchor="start" style="white-space: pre;" direction="ltr">The current Access Token</text><text x="0" y="43" font-family="Virgil, Segoe UI Emoji" font-size="20px" fill="#000000" text-anchor="start" style="white-space: pre;" direction="ltr">is still valid and can be used.</text></g><g stroke-linecap="round"><g transform="translate(410.9512204291359 657.689919100093) rotate(0 82.04576091910371 1.43581993423871)"><path d="M-0.38 1.13 C27.11 1.49, 136.74 2.38, 164.47 2.33 M1.62 0.68 C28.95 0.69, 135.88 0.41, 163.24 0.6" stroke="#000000" stroke-width="1" fill="none"></path></g><g transform="translate(410.9512204291359 657.689919100093) rotate(0 82.04576091910371 1.43581993423871)"><path d="M136.92 9.93 C143.58 9.98, 148.45 7.31, 162.03 2.49 M134.44 11.55 C146.9 6.05, 158.05 3.32, 163.05 -0.18" stroke="#000000" stroke-width="1" fill="none"></path></g><g transform="translate(410.9512204291359 657.689919100093) rotate(0 82.04576091910371 1.43581993423871)"><path d="M136.95 -10.59 C143.62 -5.23, 148.48 -2.59, 162.03 2.49 M134.48 -8.97 C146.78 -6.28, 157.91 -0.83, 163.05 -0.18" stroke="#000000" stroke-width="1" fill="none"></path></g></g><g stroke-linecap="round" transform="translate(1002.7608501442965 642.7780444070311) rotate(0 17.794743012136905 15.57421875000001)"><path d="M24.35 0.17 C27.78 1.34, 31.67 5.26, 33.48 8.36 C35.29 11.46, 35.94 15.66, 35.2 18.77 C34.45 21.87, 31.97 25.01, 29 26.97 C26.02 28.92, 21.03 30.45, 17.36 30.51 C13.68 30.57, 9.72 29.6, 6.92 27.34 C4.12 25.09, 1.14 20.2, 0.55 17 C-0.04 13.81, 1.46 10.83, 3.38 8.19 C5.31 5.55, 8.29 2.05, 12.12 1.17 C15.96 0.28, 23.58 2.64, 26.41 2.86 C29.23 3.09, 29.23 2.41, 29.08 2.5 M22.4 2.23 C25.97 3.01, 30.55 5.22, 32.78 7.7 C35.01 10.17, 36.33 13.62, 35.78 17.06 C35.23 20.5, 32.56 25.75, 29.48 28.33 C26.4 30.91, 20.97 32.49, 17.29 32.54 C13.61 32.59, 9.95 30.86, 7.38 28.65 C4.81 26.44, 2.94 22.75, 1.86 19.29 C0.78 15.83, -0.62 11.02, 0.9 7.89 C2.42 4.77, 7.48 1.6, 10.98 0.54 C14.47 -0.52, 19.77 1.55, 21.87 1.52 C23.97 1.48, 23.63 0.06, 23.58 0.35" stroke="#000000" stroke-width="1" fill="none"></path></g><g stroke-linecap="round" transform="translate(1010.3038188942965 648.1217944070311) rotate(0 10.470703125 10.470703125000002)"><path d="M6.8 0.61 C6.8 0.61, 6.8 0.61, 6.8 0.61 M6.8 0.61 C6.8 0.61, 6.8 0.61, 6.8 0.61 M1.88 13.08 C5.79 9.97, 7.09 6.16, 10.28 0.65 M1.62 12.58 C5.8 9.12, 7.98 4.21, 12.5 0.7 M2.02 15.67 C5.51 12.53, 9.03 10.31, 15.67 2.5 M2.25 16.45 C7.99 13.12, 11.64 8.23, 15.72 3.23 M5.51 22.65 C9.47 15.94, 16.1 10.5, 16.75 6.3 M4.42 21.67 C8.82 15.96, 15.18 8.58, 17.71 6.11 M8.9 19.32 C14.68 16.01, 18.29 13.14, 21.53 8.24 M9.68 21.54 C14.67 16.92, 17.92 11.5, 21.14 8.58 M16.81 19.34 C18.59 17.36, 21.5 15.16, 22.36 13.1 M16.96 19.83 C18.55 17.63, 20.46 14.97, 22.17 13.39" stroke="#868e96" stroke-width="0.5" fill="none"></path><path d="M6.49 0.96 C8.5 0.03, 11.74 0.42, 13.79 1.12 C15.84 1.82, 17.77 3.47, 18.8 5.17 C19.82 6.86, 20.1 9.01, 19.94 11.3 C19.77 13.58, 19.47 17.35, 17.81 18.86 C16.15 20.37, 12.49 20.3, 10 20.35 C7.51 20.41, 4.42 20.46, 2.86 19.18 C1.29 17.9, 0.67 14.88, 0.59 12.67 C0.51 10.47, 1.18 7.97, 2.36 5.95 C3.55 3.93, 6.54 1.68, 7.69 0.57 C8.84 -0.55, 8.98 -0.8, 9.27 -0.75 M5.9 0.02 C8.19 -1.31, 11.91 -2, 14.03 -1.18 C16.15 -0.36, 17.56 2.83, 18.62 4.94 C19.68 7.04, 20.35 9.59, 20.38 11.45 C20.41 13.31, 19.97 14.58, 18.78 16.11 C17.6 17.64, 15.35 20.31, 13.24 20.64 C11.14 20.96, 8.5 18.95, 6.17 18.05 C3.83 17.15, 0.01 17.16, -0.77 15.22 C-1.54 13.28, 0.52 8.97, 1.51 6.42 C2.51 3.87, 4.4 0.92, 5.18 -0.07 C5.95 -1.07, 5.83 0.27, 6.17 0.47" stroke="#000000" stroke-width="1" fill="none"></path></g><g stroke-linecap="round"><g transform="translate(885.8855570153328 661.6895067759827) rotate(0 57.01856536048308 1.0364362482153346)"><path d="M1 1.11 C19.45 1.35, 93.07 0.22, 111.8 0.29 M0.06 0.65 C18.78 1.19, 95.17 1.91, 113.98 1.77" stroke="#000000" stroke-width="1" fill="none"></path></g><g transform="translate(885.8855570153328 661.6895067759827) rotate(0 57.01856536048308 1.0364362482153346)"><path d="M87.62 10.26 C96.65 8.66, 109.7 3.91, 114.57 2.7 M85.95 12.17 C94.85 7.65, 103.02 6.16, 113.34 0.83" stroke="#000000" stroke-width="1" fill="none"></path></g><g transform="translate(885.8855570153328 661.6895067759827) rotate(0 57.01856536048308 1.0364362482153346)"><path d="M87.67 -10.26 C96.48 -3.87, 109.51 -0.64, 114.57 2.7 M86 -8.35 C94.84 -6.5, 102.99 -1.62, 113.34 0.83" stroke="#000000" stroke-width="1" fill="none"></path></g></g><g stroke-linecap="round" transform="translate(1003.1500563229501 406.7777911646228) rotate(0 17.794743012136905 15.574218750000014)"><path d="M19.69 0.4 C23.49 0.73, 29.17 3.9, 31.93 6.22 C34.7 8.54, 36.43 11.13, 36.28 14.31 C36.14 17.49, 33.62 22.47, 31.07 25.31 C28.52 28.14, 24.71 30.76, 20.98 31.31 C17.26 31.86, 12.03 30.25, 8.7 28.63 C5.38 27.02, 2.37 24.58, 1.04 21.61 C-0.28 18.64, -0.6 14.1, 0.77 10.8 C2.13 7.5, 5.72 3.66, 9.24 1.81 C12.76 -0.04, 19.72 -0.08, 21.89 -0.3 C24.06 -0.53, 22.47 0.17, 22.25 0.48 M17.18 0.45 C20.68 0.46, 26.8 3.35, 30.03 5.27 C33.25 7.2, 36.07 8.91, 36.53 12 C36.99 15.1, 35.03 20.95, 32.77 23.84 C30.51 26.74, 26.62 28.43, 22.96 29.36 C19.29 30.29, 14.4 30.27, 10.77 29.45 C7.13 28.62, 2.69 27.39, 1.14 24.43 C-0.41 21.48, 0.75 15.31, 1.44 11.74 C2.14 8.16, 2.71 4.71, 5.31 2.97 C7.92 1.23, 14.86 1.86, 17.06 1.31 C19.25 0.75, 18.35 -0.36, 18.48 -0.34" stroke="#000000" stroke-width="1" fill="none"></path></g><g stroke-linecap="round" transform="translate(1010.6930250729501 412.1215411646228) rotate(0 10.470703125 10.470703125)"><path d="M2.51 3.51 C2.51 3.51, 2.51 3.51, 2.51 3.51 M2.51 3.51 C2.51 3.51, 2.51 3.51, 2.51 3.51 M2.1 11.06 C2.69 8.41, 7.58 4.49, 10.38 1.86 M1.54 11.75 C3.38 8.89, 5.71 5.24, 9.56 1.58 M2.45 17.14 C5.31 12.84, 8.77 7.83, 14.08 2.89 M2.8 16.3 C7.76 10.43, 11.72 5.38, 14.14 2.28 M5.76 18.2 C8.47 14.33, 13.61 8.48, 17.11 5.22 M4.21 18.36 C9.39 13.97, 15.09 7.12, 17.26 4.76 M8.19 22.04 C11.37 18.67, 16.16 14.32, 19.48 8.87 M9.33 21.14 C12.9 16.16, 14.79 12.16, 20.03 7.56 M13.48 20.3 C15.96 18.49, 18.14 15.99, 20.67 13.69 M14.22 20.89 C16.21 18.77, 17.07 16.74, 21 12.52" stroke="#868e96" stroke-width="0.5" fill="none"></path><path d="M9.32 0.91 C11.47 0.73, 15.35 1.38, 17.06 2.33 C18.78 3.29, 19.09 4.69, 19.61 6.65 C20.13 8.6, 20.84 12.01, 20.2 14.09 C19.56 16.17, 17.9 18.07, 15.79 19.14 C13.69 20.2, 9.8 20.9, 7.58 20.5 C5.36 20.09, 3.72 18.33, 2.49 16.71 C1.25 15.09, 0.2 12.93, 0.16 10.78 C0.12 8.63, 0.64 5.64, 2.25 3.81 C3.86 1.98, 8.29 0.47, 9.82 -0.2 C11.34 -0.87, 11.36 -0.42, 11.41 -0.21 M15.54 1.67 C17.67 2.83, 20.88 5.51, 21.53 7.41 C22.18 9.31, 20.27 11.23, 19.44 13.08 C18.62 14.92, 18.43 17.29, 16.6 18.48 C14.76 19.66, 10.82 20.49, 8.43 20.17 C6.04 19.86, 3.42 17.92, 2.23 16.6 C1.04 15.29, 1.48 14.56, 1.29 12.3 C1.1 10.05, 0.07 5.22, 1.1 3.06 C2.12 0.9, 4.88 -0.43, 7.43 -0.68 C9.98 -0.94, 15.24 1.22, 16.39 1.51 C17.54 1.81, 14.66 1.17, 14.34 1.08" stroke="#000000" stroke-width="1" fill="none"></path></g><g stroke-linecap="round"><g transform="translate(859.2764319417738 427.2548752550569) rotate(0 69.79467549295919 -0.9231959770387022)"><path d="M0.35 -0.32 C23.93 -0.44, 117.23 -1.55, 140.51 -1.43 M-0.92 -1.53 C22.65 -1.46, 116.57 -0.36, 139.96 -0.34" stroke="#000000" stroke-width="1" fill="none"></path></g><g transform="translate(859.2764319417738 427.2548752550569) rotate(0 69.79467549295919 -0.9231959770387022)"><path d="M111.17 10.98 C116.59 7.87, 125.91 7.13, 141.36 -2.03 M112.17 9.1 C117.66 7.28, 125.21 4.98, 140.11 0.41" stroke="#000000" stroke-width="1" fill="none"></path></g><g transform="translate(859.2764319417738 427.2548752550569) rotate(0 69.79467549295919 -0.9231959770387022)"><path d="M111.31 -9.54 C116.58 -8.11, 125.87 -4.3, 141.36 -2.03 M112.32 -11.42 C117.78 -8.45, 125.29 -5.96, 140.11 0.41" stroke="#000000" stroke-width="1" fill="none"></path></g></g><g stroke-linecap="round"><g transform="translate(250.02368347144147 703.2726484698526) rotate(0 -0.3242678834673143 59.569555042025414)"><path d="M0.51 -0.95 C0.56 19.11, -0.17 99.96, -0.05 120.09 M-0.68 1.16 C-0.77 20.88, -1.37 98.14, -1.09 118.14" stroke="#000000" stroke-width="1" fill="none"></path></g><g transform="translate(250.02368347144147 703.2726484698526) rotate(0 -0.3242678834673143 59.569555042025414)"><path d="M-12.98 89.69 C-8.12 99.36, -5.75 103.82, 0.6 118.46 M-10.9 89.17 C-7.06 99.95, -2.88 110.27, -1.14 118.79" stroke="#000000" stroke-width="1" fill="none"></path></g><g transform="translate(250.02368347144147 703.2726484698526) rotate(0 -0.3242678834673143 59.569555042025414)"><path d="M7.54 89.65 C6.84 99.42, 3.65 103.89, 0.6 118.46 M9.62 89.14 C6.02 99.86, 2.77 110.19, -1.14 118.79" stroke="#000000" stroke-width="1" fill="none"></path></g></g><g stroke-linecap="round"><g transform="translate(106.36501840617643 853.301647752764) rotate(0 -38.23522064913084 521.8806124864084)"><path d="M-0.07 -0.8 C-35.57 -0.08, -68.71 1.19, -95.51 -0.34 M-0.88 0.44 C-32.13 0.13, -66.59 0.68, -92.81 0.25 M-93.27 1.31 C-91.9 357.51, -91.29 713.96, -93.58 1044.56 M-93.89 0.39 C-97.6 277.03, -97.12 553.46, -92.86 1044.01 M-93.81 1044.48 C-65.54 1043.09, -37.76 1045.14, 19.89 1044.31 M-92.01 1044.14 C-59.21 1044.08, -26.73 1044.92, 19.8 1043.93" stroke="#000000" stroke-width="1" fill="none"></path></g><g transform="translate(106.36501840617643 853.301647752764) rotate(0 -38.23522064913084 521.8806124864084)"><path d="M-8.33 1053.73 C0.84 1049.8, 12.44 1046.95, 18.05 1042.96 M-9.14 1054.97 C2.45 1051.49, 10.76 1048.09, 20.74 1043.54" stroke="#000000" stroke-width="1" fill="none"></path></g><g transform="translate(106.36501840617643 853.301647752764) rotate(0 -38.23522064913084 521.8806124864084)"><path d="M-8.58 1033.21 C0.83 1036.82, 12.53 1041.51, 18.05 1042.96 M-9.39 1034.45 C2.15 1038.17, 10.55 1041.98, 20.74 1043.54" stroke="#000000" stroke-width="1" fill="none"></path></g></g><g transform="translate(120.45537042223168 964.5205803543606) rotate(0 180.5 25)"><text x="0" y="18" font-family="Virgil, Segoe UI Emoji" font-size="20px" fill="#000000" text-anchor="start" style="white-space: pre;" direction="ltr">Does the browser block access</text><text x="0" y="43" font-family="Virgil, Segoe UI Emoji" font-size="20px" fill="#000000" text-anchor="start" style="white-space: pre;" direction="ltr">to third-party cookies (e.g., Safari)?</text></g><g transform="translate(217.44755792223168 1045.7393303543606) rotate(0 12.5 12.5)"><text x="0" y="18" font-family="Virgil, Segoe UI Emoji" font-size="20px" fill="#000000" text-anchor="start" style="white-space: pre;" direction="ltr">No</text></g><g transform="translate(512.9722688783295 965.9307366043606) rotate(0 16.5 12.5)"><text x="0" y="18" font-family="Virgil, Segoe UI Emoji" font-size="20px" fill="#000000" text-anchor="start" style="white-space: pre;" direction="ltr">Yes</text></g><g transform="translate(617.5881829222317 966.7666741043606) rotate(0 223.5 62.5)"><text x="0" y="18" font-family="Virgil, Segoe UI Emoji" font-size="20px" fill="#000000" text-anchor="start" style="white-space: pre;" direction="ltr">The Auth0 client cannot silently get a new</text><text x="0" y="43" font-family="Virgil, Segoe UI Emoji" font-size="20px" fill="#000000" text-anchor="start" style="white-space: pre;" direction="ltr">Access Token in such browsers. This is</text><text x="0" y="68" font-family="Virgil, Segoe UI Emoji" font-size="20px" fill="#000000" text-anchor="start" style="white-space: pre;" direction="ltr">because the hidden iframe cannot access</text><text x="0" y="93" font-family="Virgil, Segoe UI Emoji" font-size="20px" fill="#000000" text-anchor="start" style="white-space: pre;" direction="ltr">the Auth0 Session Cookie. The user will have</text><text x="0" y="118" font-family="Virgil, Segoe UI Emoji" font-size="20px" fill="#000000" text-anchor="start" style="white-space: pre;" direction="ltr">to log in again.</text></g><g stroke-linecap="round"><g transform="translate(490.8811516722317 998.7588616043606) rotate(0 58.007178970612586 -0.30733100104649225)"><path d="M1.5 0.57 C30.95 -2.08, 63.71 -2.44, 116.69 0.08 M-0.68 1 C25.73 0.18, 50.29 -0.26, 115.35 -0.19" stroke="#000000" stroke-width="1" fill="none"></path></g><g transform="translate(490.8811516722317 998.7588616043606) rotate(0 58.007178970612586 -0.30733100104649225)"><path d="M88.67 10.68 C94.6 5.92, 103.74 2.87, 115.86 0.18 M86.49 11.11 C93.74 7.98, 99.16 5.36, 114.51 -0.09" stroke="#000000" stroke-width="1" fill="none"></path></g><g transform="translate(490.8811516722317 998.7588616043606) rotate(0 58.007178970612586 -0.30733100104649225)"><path d="M88.64 -9.84 C94.39 -9.09, 103.54 -6.64, 115.86 0.18 M86.46 -9.41 C93.76 -8.08, 99.17 -6.23, 114.51 -0.09" stroke="#000000" stroke-width="1" fill="none"></path></g></g><g transform="translate(799.3445985226344 1101.2414483867628) rotate(0 175 29.99999999999997)"><text x="0" y="14" font-family="Virgil, Segoe UI Emoji" font-size="16px" fill="#495057" text-anchor="start" style="white-space: pre;" direction="ltr">If you instead use refresh tokens or a</text><text x="0" y="34" font-family="Virgil, Segoe UI Emoji" font-size="16px" fill="#495057" text-anchor="start" style="white-space: pre;" direction="ltr">custom domain for Auth0, the browser will</text><text x="0" y="54" font-family="Virgil, Segoe UI Emoji" font-size="16px" fill="#495057" text-anchor="start" style="white-space: pre;" direction="ltr">be able to silently get a new Access Token.</text></g><g stroke-linecap="round"><g transform="translate(792.944009847899 1129.346241065239) rotate(0 -24.860378723159556 -10.752776480141819)"><path d="M1.67 0.07 C-13.8 -4.97, -24.54 -9.69, -51.39 -21.58" stroke="#495057" stroke-width="1.5" fill="none" stroke-dasharray="1.5 7"></path></g><g transform="translate(792.944009847899 1129.346241065239) rotate(0 -24.860378723159556 -10.752776480141819)"><path d="M-53.92 -29.83 C-52.53 -30.31, -51.41 -29.37, -50.04 -28.61 C-48.66 -27.85, -46.66 -26.67, -45.69 -25.27 C-44.73 -23.87, -44.1 -21.71, -44.27 -20.23 C-44.44 -18.75, -45.63 -17.51, -46.72 -16.39 C-47.81 -15.27, -49.09 -13.78, -50.8 -13.5 C-52.51 -13.22, -55.62 -13.68, -56.99 -14.69 C-58.36 -15.7, -58.78 -17.66, -59.02 -19.55 C-59.26 -21.44, -59.33 -24.39, -58.4 -26.03 C-57.47 -27.68, -54.35 -28.87, -53.44 -29.42 C-52.52 -29.96, -53 -29.61, -52.91 -29.3" stroke="none" stroke-width="0" fill="#495057"></path></g></g><g transform="translate(121.67021417223168 1196.9385491043606) rotate(0 177 50)"><text x="0" y="18" font-family="Virgil, Segoe UI Emoji" font-size="20px" fill="#000000" text-anchor="start" style="white-space: pre;" direction="ltr">Has it been more than the number</text><text x="0" y="43" font-family="Virgil, Segoe UI Emoji" font-size="20px" fill="#000000" text-anchor="start" style="white-space: pre;" direction="ltr">of minutes of the Auth0 Session</text><text x="0" y="68" font-family="Virgil, Segoe UI Emoji" font-size="20px" fill="#000000" text-anchor="start" style="white-space: pre;" direction="ltr">Cookie config's 'Require login after'</text><text x="0" y="93" font-family="Virgil, Segoe UI Emoji" font-size="20px" fill="#000000" text-anchor="start" style="white-space: pre;" direction="ltr">value since the user last logged in?</text></g><g transform="translate(514.5100579222317 1204.7276116043606) rotate(0 16.5 12.5)"><text x="0" y="18" font-family="Virgil, Segoe UI Emoji" font-size="20px" fill="#000000" text-anchor="start" style="white-space: pre;" direction="ltr">Yes</text></g><g stroke-linecap="round"><g transform="translate(492.5569329222317 1237.5557366043606) rotate(0 58.17348089441657 -0.6128777803175467)"><path d="M-0.8 -1.13 C25.53 0.46, 51.13 -1.14, 117.15 -0.67 M0.49 -0.6 C28.96 0.49, 60.28 0.19, 115.74 -1.28" stroke="#000000" stroke-width="1" fill="none"></path></g><g transform="translate(492.5569329222317 1237.5557366043606) rotate(0 58.17348089441657 -0.6128777803175467)"><path d="M86.99 8.49 C93.18 7.56, 98.67 3.54, 116.71 -1.66 M88.28 9.02 C94.16 7.65, 102.89 4.63, 115.3 -2.27" stroke="#000000" stroke-width="1" fill="none"></path></g><g transform="translate(492.5569329222317 1237.5557366043606) rotate(0 58.17348089441657 -0.6128777803175467)"><path d="M86.52 -12.03 C92.85 -8.28, 98.45 -7.62, 116.71 -1.66 M87.81 -11.49 C93.79 -7.61, 102.64 -5.37, 115.3 -2.27" stroke="#000000" stroke-width="1" fill="none"></path></g></g><g transform="translate(623.7678704222317 1222.3643303543606) rotate(0 170 12.5)"><text x="0" y="18" font-family="Virgil, Segoe UI Emoji" font-size="20px" fill="#000000" text-anchor="start" style="white-space: pre;" direction="ltr">The user will have to log in again.</text></g><g stroke-linecap="round"><g transform="translate(252.76490341324006 867.1212551340654) rotate(0 0.3872564310015605 47.434528628423294)"><path d="M-0.24 0.95 C1.2 35.77, -2.4 76.01, 1.22 94.03 M0.07 0.58 C0.04 25.97, 0.03 52.94, 0.25 94.29" stroke="#000000" stroke-width="1" fill="none"></path></g><g transform="translate(252.76490341324006 867.1212551340654) rotate(0 0.3872564310015605 47.434528628423294)"><path d="M-10.37 67.09 C-4.47 75.62, -3.9 89.56, 1.63 93.79 M-10.06 66.72 C-7.82 73.8, -4.95 82.52, 0.66 94.05" stroke="#000000" stroke-width="1" fill="none"></path></g><g transform="translate(252.76490341324006 867.1212551340654) rotate(0 0.3872564310015605 47.434528628423294)"><path d="M10.15 67 C7.92 75.56, 0.36 89.52, 1.63 93.79 M10.46 66.63 C7.06 73.87, 4.3 82.61, 0.66 94.05" stroke="#000000" stroke-width="1" fill="none"></path></g></g><g stroke-linecap="round"><g transform="translate(259.3264641722317 1022.5010491043606) rotate(0 -2.0524647978455732 84.1532359290868)"><path d="M-1.86 1.35 C-0.39 40.75, -1.02 78.54, -3.06 165.68 M-0.77 0.88 C0.46 65.89, -1.51 133.76, -3.72 167.43" stroke="#000000" stroke-width="1" fill="none"></path></g><g transform="translate(259.3264641722317 1022.5010491043606) rotate(0 -2.0524647978455732 84.1532359290868)"><path d="M-14.48 140.13 C-11.27 146.63, -9.13 151.57, -4 165.85 M-13.38 139.66 C-8.78 149.46, -6.09 162.07, -4.65 167.6" stroke="#000000" stroke-width="1" fill="none"></path></g><g transform="translate(259.3264641722317 1022.5010491043606) rotate(0 -2.0524647978455732 84.1532359290868)"><path d="M6.02 141.11 C4.36 147.46, 1.65 152.17, -4 165.85 M7.11 140.64 C3.54 149.96, -1.95 162.18, -4.65 167.6" stroke="#000000" stroke-width="1" fill="none"></path></g></g><g transform="translate(121.11552667223168 1406.6963616043606) rotate(0 181.5 50)"><text x="0" y="18" font-family="Virgil, Segoe UI Emoji" font-size="20px" fill="#000000" text-anchor="start" style="white-space: pre;" direction="ltr">Has the user been inactive for </text><text x="0" y="43" font-family="Virgil, Segoe UI Emoji" font-size="20px" fill="#000000" text-anchor="start" style="white-space: pre;" direction="ltr">more than the number of minutes</text><text x="0" y="68" font-family="Virgil, Segoe UI Emoji" font-size="20px" fill="#000000" text-anchor="start" style="white-space: pre;" direction="ltr">of the Auth0 Session Cookie config's</text><text x="0" y="93" font-family="Virgil, Segoe UI Emoji" font-size="20px" fill="#000000" text-anchor="start" style="white-space: pre;" direction="ltr">'Inactivity timeout' value?</text></g><g transform="translate(523.0530266722317 1420.2725334793606) rotate(0 16.5 12.5)"><text x="0" y="18" font-family="Virgil, Segoe UI Emoji" font-size="20px" fill="#000000" text-anchor="start" style="white-space: pre;" direction="ltr">Yes</text></g><g stroke-linecap="round"><g transform="translate(501.0999016722317 1453.1006584793606) rotate(0 58.05547292344272 -0.9223874405679453)"><path d="M1.5 -1.91 C35.92 -1.28, 73.99 -0.41, 116.19 -1.58 M-0.28 0 C24.16 0.17, 46.97 0.04, 116.39 -0.53" stroke="#000000" stroke-width="1" fill="none"></path></g><g transform="translate(501.0999016722317 1453.1006584793606) rotate(0 58.05547292344272 -0.9223874405679453)"><path d="M89.78 8.04 C96.17 5.33, 106.14 2.95, 116.4 -1.81 M88 9.95 C94.7 8.4, 99.69 6.21, 116.6 -0.76" stroke="#000000" stroke-width="1" fill="none"></path></g><g transform="translate(501.0999016722317 1453.1006584793606) rotate(0 58.05547292344272 -0.9223874405679453)"><path d="M89.63 -12.48 C95.93 -8.64, 105.95 -4.48, 116.4 -1.81 M87.84 -10.57 C94.41 -7.97, 99.43 -6.01, 116.6 -0.76" stroke="#000000" stroke-width="1" fill="none"></path></g></g><g transform="translate(632.3108391722317 1437.9092522293606) rotate(0 170 12.5)"><text x="0" y="18" font-family="Virgil, Segoe UI Emoji" font-size="20px" fill="#000000" text-anchor="start" style="white-space: pre;" direction="ltr">The user will have to log in again.</text></g><g transform="translate(221.81516153820894 1319.8481228540302) rotate(0 12.5 12.5)"><text x="0" y="18" font-family="Virgil, Segoe UI Emoji" font-size="20px" fill="#000000" text-anchor="start" style="white-space: pre;" direction="ltr">No</text></g><g stroke-linecap="round"><g transform="translate(260.6275415773539 1307.533417572247) rotate(0 -0.7373537248652156 42.16439854726195)"><path d="M0.76 -0.6 C1.66 24.73, 0.55 54.76, -2.53 84.41 M-0.93 -0.75 C-2.13 24.66, -1.32 49.67, -1.34 85.07" stroke="#000000" stroke-width="1" fill="none"></path></g><g transform="translate(260.6275415773539 1307.533417572247) rotate(0 -0.7373537248652156 42.16439854726195)"><path d="M-10.97 56.33 C-6.69 63.88, -4.09 76.1, -2.36 84.44 M-12.66 56.18 C-9.83 64.79, -5.52 73.06, -1.17 85.1" stroke="#000000" stroke-width="1" fill="none"></path></g><g transform="translate(260.6275415773539 1307.533417572247) rotate(0 -0.7373537248652156 42.16439854726195)"><path d="M9.55 56.24 C7.41 63.78, 3.59 76.03, -2.36 84.44 M7.86 56.09 C4.66 64.84, 2.93 73.14, -1.17 85.1" stroke="#000000" stroke-width="1" fill="none"></path></g></g><g transform="translate(121.94755792223168 1621.4815178543606) rotate(0 193.5 50)"><text x="0" y="18" font-family="Virgil, Segoe UI Emoji" font-size="20px" fill="#000000" text-anchor="start" style="white-space: pre;" direction="ltr">The Auth0 client will silently get a</text><text x="0" y="43" font-family="Virgil, Segoe UI Emoji" font-size="20px" fill="#000000" text-anchor="start" style="white-space: pre;" direction="ltr">new access token using a hidden iframe</text><text x="0" y="68" font-family="Virgil, Segoe UI Emoji" font-size="20px" fill="#000000" text-anchor="start" style="white-space: pre;" direction="ltr">and the Auth0 Session Cookie. (This</text><text x="0" y="93" font-family="Virgil, Segoe UI Emoji" font-size="20px" fill="#000000" text-anchor="start" style="white-space: pre;" direction="ltr">likely also renews the ID Token.)</text></g><g transform="translate(215.97490167223168 1544.8341984350511) rotate(0 12.5 12.5)"><text x="0" y="18" font-family="Virgil, Segoe UI Emoji" font-size="20px" fill="#000000" text-anchor="start" style="white-space: pre;" direction="ltr">No</text></g><g stroke-linecap="round"><g transform="translate(257.9749016722317 1521.4709171850511) rotate(0 -0.8137902095913887 42.42412080056965)"><path d="M1.65 -1.08 C-1.21 28.28, -1.41 60.68, -3.28 85.93 M-0.19 0.78 C-1.03 26.26, -0.6 51.71, -1.31 85.63" stroke="#000000" stroke-width="1" fill="none"></path></g><g transform="translate(257.9749016722317 1521.4709171850511) rotate(0 -0.8137902095913887 42.42412080056965)"><path d="M-9.53 56.22 C-8.27 65.76, -4.5 78.37, -3.08 86.52 M-11.37 58.09 C-8.73 66.16, -4.8 74.13, -1.12 86.22" stroke="#000000" stroke-width="1" fill="none"></path></g><g transform="translate(257.9749016722317 1521.4709171850511) rotate(0 -0.8137902095913887 42.42412080056965)"><path d="M10.99 56.5 C5.09 66, 1.7 78.51, -3.08 86.52 M9.15 58.37 C5.46 66.19, 3.07 74.07, -1.12 86.22" stroke="#000000" stroke-width="1" fill="none"></path></g></g><g stroke-linecap="round"><g transform="translate(1086.4514641722317 999.4476749647179) rotate(0 70.15325721371914 320.7786162102627)"><path d="M0.61 1.75 C29.73 0.54, 59.6 -1.73, 134.28 0.33 M0.57 0.1 C31.93 0.19, 64.13 0.13, 135.91 -0.42 M134.47 -0.6 C137.33 249.98, 138.3 498.71, 139.73 641.59 M135.12 -0.55 C134.09 159.59, 134.94 318.91, 139.57 642.16" stroke="#000000" stroke-width="1" fill="none"></path></g><g transform="translate(1086.4514641722317 999.4476749647179) rotate(0 70.15325721371914 320.7786162102627)"><path d="M129.56 615.85 C131.1 621.11, 133.15 625.14, 138.74 642.64 M129.52 614.2 C131.49 619.92, 134.14 626.55, 140.37 641.89" stroke="#000000" stroke-width="1" fill="none"></path></g><g transform="translate(1086.4514641722317 999.4476749647179) rotate(0 70.15325721371914 320.7786162102627)"><path d="M150.08 615.59 C147.04 620.93, 144.5 625.03, 138.74 642.64 M150.04 613.94 C147.14 619.55, 144.92 626.24, 140.37 641.89" stroke="#000000" stroke-width="1" fill="none"></path></g></g><g stroke-linecap="round"><g transform="translate(975.5764641722317 1237.4112053543606) rotate(0 123.19522363503188 0.5614088726489967)"><path d="M1.26 1.31 C80.85 -0.19, 160.27 -0.19, 246.51 -0.19 M-0.52 0.06 C60.44 0.96, 121.01 2.11, 246.91 -0.04" stroke="#000000" stroke-width="1" fill="none"></path></g></g><g stroke-linecap="round"><g transform="translate(983.9280266722317 1449.5244866043606) rotate(0 120.20736833780256 -0.8220570157558313)"><path d="M0.54 -1.63 C66.78 0.17, 131.33 -2.1, 241.05 -0.1 M-0.63 0.43 C58.74 -2.43, 116.43 -2.67, 240.75 -1.12" stroke="#000000" stroke-width="1" fill="none"></path></g></g><g stroke-linecap="round"><g transform="translate(523.4592766722317 1671.2197991043606) rotate(0 338.08599725104887 -1.3679112094500852)"><path d="M-0.46 -0.4 C189.95 -0.26, 378.29 -2.49, 676.52 -2.03 M0.3 0.01 C184.46 -2.66, 369.65 -2.92, 676.63 -2.67" stroke="#000000" stroke-width="1" fill="none"></path></g><g transform="translate(523.4592766722317 1671.2197991043606) rotate(0 338.08599725104887 -1.3679112094500852)"><path d="M647.3 6.59 C657.55 6.59, 662.66 0, 676.02 -1.12 M649.19 7.61 C655.18 4.36, 663.7 2.73, 676.3 -2.73" stroke="#000000" stroke-width="1" fill="none"></path></g><g transform="translate(523.4592766722317 1671.2197991043606) rotate(0 338.08599725104887 -1.3679112094500852)"><path d="M647.3 -13.93 C657.56 -8.18, 662.66 -9.03, 676.02 -1.12 M649.2 -12.91 C655.11 -10.55, 663.63 -6.58, 676.3 -2.73" stroke="#000000" stroke-width="1" fill="none"></path></g></g><g stroke-linecap="round" transform="translate(1210.605939910095 1651.2627678543606) rotate(0 17.794743012136905 15.57421875)"><path d="M12.37 1.23 C15.72 0.37, 20.94 0.43, 24.46 1.63 C27.98 2.83, 31.85 5.37, 33.5 8.43 C35.15 11.48, 35.14 16.74, 34.36 19.95 C33.57 23.17, 31.82 25.83, 28.76 27.73 C25.71 29.62, 19.82 31.46, 16.02 31.32 C12.22 31.18, 8.5 29.39, 5.96 26.89 C3.43 24.39, 1.27 19.66, 0.8 16.33 C0.32 13, 0.94 9.7, 3.12 6.91 C5.3 4.12, 12.16 0.52, 13.87 -0.43 C15.58 -1.37, 13.27 0.93, 13.37 1.23 M11.92 1.96 C15.45 0.74, 21.88 -0.65, 25.37 0.73 C28.86 2.11, 31.44 6.91, 32.86 10.23 C34.28 13.56, 34.62 17.55, 33.89 20.7 C33.17 23.85, 31.6 27.53, 28.5 29.12 C25.4 30.71, 19.07 30.41, 15.27 30.24 C11.48 30.07, 8.52 30.41, 5.74 28.1 C2.97 25.79, -0.8 19.72, -1.38 16.36 C-1.96 13, -0.2 10.57, 2.24 7.95 C4.68 5.34, 11.62 1.66, 13.26 0.66 C14.9 -0.35, 11.84 1.51, 12.1 1.92" stroke="#000000" stroke-width="1" fill="none"></path></g><g stroke-linecap="round" transform="translate(1218.148908660095 1656.6065178543606) rotate(0 10.470703125 10.470703125)"><path d="M2.79 3.75 C2.79 3.75, 2.79 3.75, 2.79 3.75 M2.79 3.75 C2.79 3.75, 2.79 3.75, 2.79 3.75 M0.36 13.13 C4.32 7.88, 9.04 3.1, 12.41 -0.72 M1.33 11.18 C4.62 7.56, 9.48 2.92, 11.67 0.36 M4.48 17.02 C7.85 9.67, 14.06 2.82, 17.06 1.11 M2.17 14.97 C5.27 12.87, 8.13 9.82, 15.16 2.08 M3.44 18.54 C7.54 15.84, 12.56 11.02, 21.02 1.55 M3.96 19.56 C8.16 15.01, 13.28 10.2, 18.66 3.29 M7.06 21.23 C13.78 18.36, 17.28 12.73, 20.28 6.08 M8.69 21.76 C12.92 16.48, 16.76 12.87, 21.03 7.28 M15.04 20.44 C17.63 18.04, 19.7 15.14, 20.56 13.76 M15.05 19.67 C17.09 17.72, 18.39 16.45, 20.82 12.66" stroke="#868e96" stroke-width="0.5" fill="none"></path><path d="M10.14 -0.59 C12.45 -0.88, 15.01 0.27, 16.69 1.54 C18.36 2.81, 19.55 4.7, 20.2 7.01 C20.84 9.32, 21.5 13.32, 20.54 15.4 C19.59 17.47, 16.55 18.5, 14.47 19.47 C12.39 20.43, 10.1 21.55, 8.04 21.18 C5.97 20.8, 3.55 19.15, 2.08 17.23 C0.61 15.31, -0.95 11.97, -0.78 9.66 C-0.61 7.36, 1.45 5.15, 3.12 3.38 C4.79 1.61, 7.88 -0.49, 9.25 -0.95 C10.62 -1.4, 11.28 0.43, 11.34 0.67 M10.42 0.28 C12.33 -0.12, 13.45 -0.38, 15.35 0.59 C17.24 1.56, 20.78 3.75, 21.78 6.12 C22.79 8.49, 22.31 12.7, 21.39 14.79 C20.46 16.87, 18.57 17.55, 16.24 18.61 C13.91 19.67, 9.52 21.67, 7.43 21.14 C5.33 20.62, 4.99 17.44, 3.64 15.45 C2.29 13.46, -0.73 11.17, -0.69 9.2 C-0.64 7.24, 2.28 5.35, 3.91 3.66 C5.54 1.97, 8.08 -0.61, 9.11 -0.95 C10.15 -1.28, 9.93 1.46, 10.11 1.66" stroke="#000000" stroke-width="1" fill="none"></path></g><g stroke-linecap="round" transform="translate(83.38780900353049 922.7738239009403) rotate(0 595.484130533664 413.35697237108246)"><path d="M0.27 -0.33 C377.99 2.85, 756.74 3.22, 1191.74 -0.32 M1190.94 0.67 C1188.73 289.22, 1189.08 579.4, 1190.31 826.05 M1191.1 826.99 C884.28 823.31, 578.25 823.5, -0.62 827.26 M-0.22 826.18 C3.82 574.39, 3.91 322.6, -0.08 -0.03" stroke="#000000" stroke-width="1.5" fill="none" stroke-dasharray="1.5 7"></path></g><g transform="translate(1105.640715420563 899.7518815417436) rotate(0 84 10)"><text x="0" y="14" font-family="Virgil, Segoe UI Emoji" font-size="16px" fill="#495057" text-anchor="start" style="white-space: pre;" direction="ltr">Auth0 Session Cookie</text></g><g stroke-linecap="round" transform="translate(85.11682683757522 1819.6335372127098) rotate(0 595.4841305336639 327.8910804922534)"><path d="M0.17 -0.09 C277.88 -4.4, 555.65 -5, 1191.62 -0.4 M1191.25 -0.45 C1187.77 149.56, 1188.95 300.3, 1191.38 655.46 M1190.64 655.42 C869.59 656.6, 548.6 655.44, -0.49 656.2 M-0.06 655.61 C0.27 448.53, 0.37 241.92, 0.31 -0.19" stroke="#000000" stroke-width="1.5" fill="none" stroke-dasharray="1.5 7"></path></g><g transform="translate(1151.5640371274749 1796.4692326052962) rotate(0 61.5 10)"><text x="0" y="14" font-family="Virgil, Segoe UI Emoji" font-size="16px" fill="#495057" text-anchor="start" style="white-space: pre;" direction="ltr">Refresh Tokens</text></g><g transform="translate(139.147139085376 1862.446561843532) rotate(0 234.9999999999999 37.5)"><text x="0" y="18" font-family="Virgil, Segoe UI Emoji" font-size="20px" fill="#495057" text-anchor="start" style="white-space: pre;" direction="ltr">Has it been longer than the </text><text x="0" y="43" font-family="Virgil, Segoe UI Emoji" font-size="20px" fill="#495057" text-anchor="start" style="white-space: pre;" direction="ltr">'Refresh Token Expiration' &gt; 'Absolute Lifetime'</text><text x="0" y="68" font-family="Virgil, Segoe UI Emoji" font-size="20px" fill="#495057" text-anchor="start" style="white-space: pre;" direction="ltr">value since the user last logged in?</text></g><g transform="translate(646.4743250900647 1867.1482150389036) rotate(0 16.5 12.5)"><text x="0" y="18" font-family="Virgil, Segoe UI Emoji" font-size="20px" fill="#000000" text-anchor="start" style="white-space: pre;" direction="ltr">Yes</text></g><g stroke-linecap="round"><g transform="translate(624.3832078839678 1899.9716157320972) rotate(0 58.18250348791503 -0.2710628806629529)"><path d="M-0.23 -0.79 C26.65 -1.07, 48.86 1.03, 116.59 -1.95 M0.29 0.39 C38.43 2.01, 76.08 1.73, 116.56 -0.65" stroke="#000000" stroke-width="1" fill="none"></path></g><g transform="translate(624.3832078839678 1899.9716157320972) rotate(0 58.18250348791503 -0.2710628806629529)"><path d="M88.62 10.06 C96.15 7.15, 99.02 6.81, 116.97 -2.31 M89.14 11.24 C98.25 8.32, 106.8 4.36, 116.94 -1.01" stroke="#000000" stroke-width="1" fill="none"></path></g><g transform="translate(624.3832078839678 1899.9716157320972) rotate(0 58.18250348791503 -0.2710628806629529)"><path d="M87.72 -10.44 C95.48 -8.86, 98.54 -4.73, 116.97 -2.31 M88.23 -9.26 C97.49 -5.42, 106.33 -2.65, 116.94 -1.01" stroke="#000000" stroke-width="1" fill="none"></path></g></g><g transform="translate(756.3558769507081 1882.1154532473236) rotate(0 170 12.5)"><text x="0" y="18" font-family="Virgil, Segoe UI Emoji" font-size="20px" fill="#000000" text-anchor="start" style="white-space: pre;" direction="ltr">The user will have to log in again.</text></g><g transform="translate(240.29094031268983 1964.1670046379745) rotate(0 12.5 12.5)"><text x="0" y="18" font-family="Virgil, Segoe UI Emoji" font-size="20px" fill="#000000" text-anchor="start" style="white-space: pre;" direction="ltr">No</text></g><g stroke-linecap="round"><g transform="translate(279.35788573607374 1944.4230454419267) rotate(0 -0.8759309779852629 43.285508952009764)"><path d="M-1.75 -0.13 C-1.71 22.75, -0.51 49.43, 0 87.36 M-0.29 -0.79 C-1.15 19.36, -1.02 40.93, -0.84 87.24" stroke="#000000" stroke-width="1" fill="none"></path></g><g transform="translate(279.35788573607374 1944.4230454419267) rotate(0 -0.8759309779852629 43.285508952009764)"><path d="M-12.95 58.95 C-9.88 65.69, -5.33 76.26, 0.93 88.1 M-11.49 58.29 C-9.08 64.82, -6.11 72.73, 0.09 87.98" stroke="#000000" stroke-width="1" fill="none"></path></g><g transform="translate(279.35788573607374 1944.4230454419267) rotate(0 -0.8759309779852629 43.285508952009764)"><path d="M7.58 58.88 C4.98 65.68, 3.86 76.27, 0.93 88.1 M9.03 58.22 C6.63 64.69, 4.8 72.61, 0.09 87.98" stroke="#000000" stroke-width="1" fill="none"></path></g></g><g transform="translate(144.52423538298103 2063.147026132123) rotate(0 240.4999999999999 37.5)"><text x="0" y="18" font-family="Virgil, Segoe UI Emoji" font-size="20px" fill="#495057" text-anchor="start" style="white-space: pre;" direction="ltr">Has it been longer than the</text><text x="0" y="43" font-family="Virgil, Segoe UI Emoji" font-size="20px" fill="#495057" text-anchor="start" style="white-space: pre;" direction="ltr">'Refresh Token Expiration' &gt; 'Inactivity Lifetime'</text><text x="0" y="68" font-family="Virgil, Segoe UI Emoji" font-size="20px" fill="#495057" text-anchor="start" style="white-space: pre;" direction="ltr">value since the user was last active?</text></g><g transform="translate(656.9969922525888 2066.303008412716) rotate(0 16.5 12.5)"><text x="0" y="18" font-family="Virgil, Segoe UI Emoji" font-size="20px" fill="#000000" text-anchor="start" style="white-space: pre;" direction="ltr">Yes</text></g><g stroke-linecap="round"><g transform="translate(634.9058750464919 2099.131133412716) rotate(0 57.89250985626131 0.34717783983796835)"><path d="M-1.15 1.62 C33.62 1.48, 70.29 0.73, 114.39 -0.81 M0.46 0.61 C23.39 1.27, 47.72 1.06, 116.93 -0.93" stroke="#000000" stroke-width="1" fill="none"></path></g><g transform="translate(634.9058750464919 2099.131133412716) rotate(0 57.89250985626131 0.34717783983796835)"><path d="M87.87 11.68 C95.67 7.99, 105.4 3.98, 115.14 -1.44 M89.47 10.67 C94.57 8.59, 101.07 6.21, 117.68 -1.55" stroke="#000000" stroke-width="1" fill="none"></path></g><g transform="translate(634.9058750464919 2099.131133412716) rotate(0 57.89250985626131 0.34717783983796835)"><path d="M87.34 -8.83 C95.34 -6.26, 105.23 -4.01, 115.14 -1.44 M88.94 -9.84 C94.17 -7.78, 100.78 -6.01, 117.68 -1.55" stroke="#000000" stroke-width="1" fill="none"></path></g></g><g transform="translate(766.8785441132313 2081.270246621136) rotate(0 170 12.5)"><text x="0" y="18" font-family="Virgil, Segoe UI Emoji" font-size="20px" fill="#000000" text-anchor="start" style="white-space: pre;" direction="ltr">The user will have to log in again.</text></g><g transform="translate(149.33556363558114 2325.962382125458) rotate(0 213.4999999999999 50)"><text x="0" y="18" font-family="Virgil, Segoe UI Emoji" font-size="20px" fill="#495057" text-anchor="start" style="white-space: pre;" direction="ltr">The Auth0 client will exchange the Refresh</text><text x="0" y="43" font-family="Virgil, Segoe UI Emoji" font-size="20px" fill="#495057" text-anchor="start" style="white-space: pre;" direction="ltr">Token for a new Access Token and a new</text><text x="0" y="68" font-family="Virgil, Segoe UI Emoji" font-size="20px" fill="#495057" text-anchor="start" style="white-space: pre;" direction="ltr">Refresh Token. (This likely also renews the</text><text x="0" y="93" font-family="Virgil, Segoe UI Emoji" font-size="20px" fill="#495057" text-anchor="start" style="white-space: pre;" direction="ltr">ID Token.)</text></g><g transform="translate(244.72659990219495 2169.2881560048963) rotate(0 12.5 12.5)"><text x="0" y="18" font-family="Virgil, Segoe UI Emoji" font-size="20px" fill="#000000" text-anchor="start" style="white-space: pre;" direction="ltr">No</text></g><g stroke-linecap="round"><g transform="translate(284.5890451740845 2149.544196808849) rotate(0 -1.0868253093469775 84.61931734366772)"><path d="M-0.9 0.66 C0.3 36.7, -1.74 77.36, -2.04 168.02 M0.1 -0.09 C0.36 47.44, 0.01 94.08, -2.34 169.33" stroke="#000000" stroke-width="1" fill="none"></path></g><g transform="translate(284.5890451740845 2149.544196808849) rotate(0 -1.0868253093469775 84.61931734366772)"><path d="M-12.75 141.53 C-8.83 145.69, -8.35 154.41, -2.78 168.08 M-11.75 140.79 C-8.34 149.12, -5.59 156.45, -3.09 169.38" stroke="#000000" stroke-width="1" fill="none"></path></g><g transform="translate(284.5890451740845 2149.544196808849) rotate(0 -1.0868253093469775 84.61931734366772)"><path d="M7.77 142.08 C7.03 146.01, 2.86 154.61, -2.78 168.08 M8.76 141.33 C6.45 149.31, 3.47 156.5, -3.09 169.38" stroke="#000000" stroke-width="1" fill="none"></path></g></g><g transform="translate(514.4489040262151 2187.7702012269474) rotate(0 176.5 20)"><text x="0" y="14" font-family="Virgil, Segoe UI Emoji" font-size="16px" fill="#495057" text-anchor="start" style="white-space: pre;" direction="ltr">'Last active' probably means when the user</text><text x="0" y="34" font-family="Virgil, Segoe UI Emoji" font-size="16px" fill="#495057" text-anchor="start" style="white-space: pre;" direction="ltr">last successfully obtained an Access Token.</text></g><g stroke-linecap="round"><g transform="translate(498.3377617015394 2187.152831360915) rotate(0 -54.31886192851425 -20.264699254320362)"><path d="M-0.65 -0.47 C-35.02 -13.7, -70.79 -22.62, -107.99 -40.06" stroke="#495057" stroke-width="1.5" fill="none" stroke-dasharray="1.5 7"></path></g><g transform="translate(498.3377617015394 2187.152831360915) rotate(0 -54.31886192851425 -20.264699254320362)"><path d="M-107.52 -47.57 C-105.85 -47.89, -104.33 -48.18, -103.2 -47.1 C-102.07 -46.02, -101.2 -43, -100.73 -41.1 C-100.26 -39.21, -99.57 -37.06, -100.37 -35.74 C-101.17 -34.42, -103.85 -33.81, -105.51 -33.17 C-107.17 -32.53, -108.89 -31.5, -110.32 -31.9 C-111.75 -32.3, -113.16 -34.13, -114.09 -35.55 C-115.02 -36.97, -116.09 -38.71, -115.9 -40.4 C-115.71 -42.08, -114.37 -44.36, -112.96 -45.68 C-111.55 -47, -108.38 -48.08, -107.44 -48.33 C-106.49 -48.59, -107.29 -47.4, -107.28 -47.2" stroke="none" stroke-width="0" fill="#495057"></path></g></g><g stroke-linecap="round"><g transform="translate(1109.8073154770918 1895.0800270078514) rotate(0 56.21976333945304 222.69948385357714)"><path d="M-1.07 1.41 C26.34 0.55, 56.77 0.71, 111.7 0.4 M0.42 -0.34 C37.51 1.07, 74.21 -0.71, 113.51 -0.17 M113.31 -0.89 C111.42 132.39, 110.3 266.64, 109.89 446.29 M112.64 -0.68 C109.89 96.18, 109.36 192.7, 109.72 445.79" stroke="#495057" stroke-width="1" fill="none"></path></g><g transform="translate(1109.8073154770918 1895.0800270078514) rotate(0 56.21976333945304 222.69948385357714)"><path d="M98.38 419.01 C100.41 425.43, 105.58 432.67, 108.45 446.82 M99.87 417.27 C102.82 427.95, 105.35 435.76, 110.26 446.25" stroke="#495057" stroke-width="1" fill="none"></path></g><g transform="translate(1109.8073154770918 1895.0800270078514) rotate(0 56.21976333945304 222.69948385357714)"><path d="M118.9 419.01 C115.88 425.46, 116.01 432.7, 108.45 446.82 M120.39 417.26 C116.52 427.89, 112.22 435.7, 110.26 446.25" stroke="#495057" stroke-width="1" fill="none"></path></g></g><g stroke-linecap="round"><g transform="translate(1118.2846366716858 2095.118128707173) rotate(0 50.57967739211426 -0.5477311354949279)"><path d="M-0.11 -1.54 C36.82 -0.19, 71.64 1.73, 100.84 -1.45 M0.58 0.44 C22.19 0.32, 44.99 0.91, 101.27 -0.73" stroke="#495057" stroke-width="1" fill="none"></path></g></g><g stroke-linecap="round"><g transform="translate(593.3898831175347 2368.6600788544974) rotate(0 299.93756878179556 -1.956505824424994)"><path d="M0.55 -0.16 C190.27 -4.07, 380.49 -3.94, 599.72 -3.79 M0.15 -0.07 C136.33 -1.32, 273.28 -2.15, 598.85 -3.77" stroke="#495057" stroke-width="1" fill="none"></path></g><g transform="translate(593.3898831175347 2368.6600788544974) rotate(0 299.93756878179556 -1.956505824424994)"><path d="M572.09 6.24 C579.51 1.1, 588.2 1.33, 600.8 -3.16 M571.09 6.47 C576.68 4.84, 584.2 2.71, 598.61 -3.11" stroke="#495057" stroke-width="1" fill="none"></path></g><g transform="translate(593.3898831175347 2368.6600788544974) rotate(0 299.93756878179556 -1.956505824424994)"><path d="M571.98 -14.28 C579.44 -12.9, 588.16 -6.15, 600.8 -3.16 M570.99 -14.05 C576.62 -11, 584.16 -8.46, 598.61 -3.11" stroke="#495057" stroke-width="1" fill="none"></path></g></g><g stroke-linecap="round" transform="translate(1201.7117765723615 2349.99483468791) rotate(0 17.794743012136905 15.57421875)"><path d="M18.71 -0.16 C22.24 0.03, 27.28 2.23, 30.15 4.65 C33.02 7.08, 35.41 11.19, 35.92 14.38 C36.43 17.58, 35.46 21.32, 33.2 23.84 C30.94 26.36, 26.06 28.43, 22.36 29.5 C18.67 30.57, 14.35 31.3, 11.01 30.24 C7.68 29.19, 4.01 26.22, 2.37 23.18 C0.74 20.14, 0.54 15.23, 1.22 12 C1.9 8.77, 3.17 5.9, 6.47 3.8 C9.77 1.7, 18.51 -0.25, 21.03 -0.61 C23.55 -0.97, 21.94 1.25, 21.61 1.64 M24.13 1.62 C27.64 2.55, 31.82 4.27, 33.69 7.01 C35.55 9.75, 36.1 14.75, 35.32 18.06 C34.55 21.37, 31.87 24.74, 29.06 26.87 C26.25 29, 22.13 30.88, 18.46 30.84 C14.8 30.79, 10.22 28.78, 7.08 26.59 C3.94 24.4, 0.28 20.67, -0.4 17.7 C-1.08 14.74, 1.14 11.51, 3 8.81 C4.86 6.11, 7.61 2.66, 10.75 1.49 C13.9 0.32, 20.03 1.83, 21.88 1.8 C23.72 1.76, 21.86 1.16, 21.84 1.28" stroke="#000000" stroke-width="1" fill="none"></path></g><g stroke-linecap="round" transform="translate(1209.2547453223615 2355.33858468791) rotate(0 10.470703125 10.470703125)"><path d="M1.63 4.06 C1.63 4.06, 1.63 4.06, 1.63 4.06 M1.63 4.06 C1.63 4.06, 1.63 4.06, 1.63 4.06 M1.13 10.21 C2.38 9.66, 5.55 6.44, 9.02 2.57 M1.05 11.86 C2.17 8.77, 4.77 6.65, 9.51 1.68 M3.08 16.31 C7.89 9.54, 11.68 4.53, 15.34 0.4 M3.63 13.85 C5.93 10.2, 10.75 7.09, 15.32 0.65 M3.37 19.73 C6.53 17.51, 9.47 13.5, 17.12 2.62 M3.4 19.89 C9.97 13.9, 13.65 7.77, 17.1 3.97 M6.69 20.91 C14.15 15.52, 15.95 8.7, 19.54 4.37 M7.47 21.4 C12.52 15.8, 15.56 11.65, 20.61 7.05 M10.05 21.95 C12.95 20.14, 15.18 18.66, 21.94 11.76 M10.73 22.81 C14.15 21.2, 15.58 18.03, 21.14 11.46" stroke="#868e96" stroke-width="0.5" fill="none"></path><path d="M14.67 1.25 C16.9 2.08, 19.35 4.42, 20.47 6.47 C21.59 8.52, 22.07 11.58, 21.39 13.55 C20.71 15.52, 18.5 17.05, 16.38 18.29 C14.26 19.53, 10.83 20.99, 8.67 20.99 C6.51 20.99, 4.77 19.76, 3.4 18.3 C2.04 16.84, 0.79 14.61, 0.5 12.22 C0.22 9.84, 0.4 5.82, 1.7 3.97 C3.01 2.13, 6.04 1.57, 8.32 1.16 C10.61 0.75, 13.76 1.42, 15.4 1.53 C17.03 1.63, 18.1 1.51, 18.14 1.78 M14.36 1.26 C16.57 1.59, 17.79 3, 18.93 4.63 C20.07 6.26, 21.47 8.79, 21.21 11.03 C20.95 13.28, 19.12 16.43, 17.38 18.12 C15.64 19.8, 13.17 21.15, 10.77 21.14 C8.36 21.14, 4.87 19.29, 2.94 18.07 C1 16.85, -0.64 15.91, -0.85 13.8 C-1.07 11.69, 0.39 7.8, 1.65 5.41 C2.9 3.02, 4.54 0.51, 6.69 -0.54 C8.83 -1.59, 13.37 -0.91, 14.53 -0.87 C15.69 -0.83, 13.83 -0.83, 13.65 -0.3" stroke="#000000" stroke-width="1" fill="none"></path></g><g stroke-linecap="round"><g transform="translate(238.69585796229444 41.528875817369) rotate(0 -0.5934564879353275 54.456972355831795)"><path d="M-0.15 0.8 C-0.64 19.05, -1.72 91.07, -1.78 108.73 M-1.69 0.18 C-1.88 18.16, 0.46 89.17, 0.59 107.06" stroke="#000000" stroke-width="1" fill="none"></path></g><g transform="translate(238.69585796229444 41.528875817369) rotate(0 -0.5934564879353275 54.456972355831795)"><path d="M-8.93 78 C-4.75 91.15, -3.77 100.56, -0.71 106.17 M-10.78 78.67 C-7.42 86.8, -5.23 95.11, 0.99 107.58" stroke="#000000" stroke-width="1" fill="none"></path></g><g transform="translate(238.69585796229444 41.528875817369) rotate(0 -0.5934564879353275 54.456972355831795)"><path d="M11.59 77.56 C7.69 90.86, 0.6 100.44, -0.71 106.17 M9.74 78.23 C7.53 86.54, 4.16 94.97, 0.99 107.58" stroke="#000000" stroke-width="1" fill="none"></path></g></g></svg>